<?xml version="1.0" encoding="UTF-8"?>
<svg width="65px" height="55px" viewBox="0 0 65 55" version="1.1" xmlns="http://www.w3.org/2000/svg" xmlns:xlink="http://www.w3.org/1999/xlink">
    <title>Logos / FSTM</title>
    <g id="Imagery-/-logos" stroke="none" stroke-width="1" fill="none" fill-rule="evenodd">
        <g id="faculty-&amp;-centres" transform="translate(-437.000000, -645.000000)">
            <g id="Centres" transform="translate(437.000000, 560.000000)">
                <g id="Group" transform="translate(0.000000, 85.000000)">
                    <g id="Group-46" transform="translate(0.000000, 0.000000)">
                        <polygon id="Fill-1" fill="#E1140B" points="0 54.5713555 25.142762 54.5713555 25.142762 50.4072321 0 50.4072321"></polygon>
                        <polygon id="Fill-2" fill="#00AADC" points="40.7363293 54.5713555 64.049032 54.5713555 64.049032 50.4072321 40.7363293 50.4072321"></polygon>
                        <polygon id="Fill-3" fill="#510C76" points="25.142762 54.5713555 40.7378518 54.5713555 40.7378518 50.4072321 25.142762 50.4072321"></polygon>
                        <g id="Group-45" transform="translate(0.027405, 0.000000)" fill="#5C5C5C">
                            <path d="M40.709533,5.83236392 C40.709533,1.47314249 38.2978741,0.000762101648 35.5329925,0.000762101648 C34.4124237,0.000762101648 33.4136559,0.235489409 32.5305989,0.765912157 C31.6490645,1.23841518 30.9410965,1.94412131 30.4097398,2.82815922 C30.4097398,2.82815922 30.4051723,2.71994078 30.4051723,2.66506947 C30.4051723,1.2033585 29.220658,0.0175283379 27.7590466,0.0175283379 C26.2989576,0.0175283379 25.1144433,1.2033585 25.1144433,2.66506947 L25.1144433,40.1208413 C25.1144433,41.6511414 26.3552906,42.8918429 27.88237,42.8918429 C29.410972,42.8918429 30.6518192,41.6511414 30.6518192,40.1208413 C30.6518192,40.1071235 30.6472517,40.0949298 30.6472517,40.081212 L30.6472517,7.36418823 C30.6472517,5.06568966 31.70692,4.24261988 33.0589106,4.24261988 C34.767169,4.24261988 35.1782472,5.3613851 35.1782472,6.89320941 L35.1782472,40.1955273 L35.1858598,40.1955273 C35.2178325,41.6877223 36.4312745,42.8918429 37.9324713,42.8918429 C39.430623,42.8918429 40.6471101,41.6877223 40.6760378,40.1955273 L40.709533,40.1955273 L40.709533,5.83236392 Z" id="Fill-4"></path>
                            <path d="M61.6005283,0 L47.8963984,0 C46.5337502,0 45.426884,1.1080958 45.426884,2.47378195 C45.426884,3.83946811 46.5337502,4.9475639 47.8963984,4.94908811 L51.8823346,4.94908811 L51.8823346,39.9265054 L51.8853796,39.9265054 C51.8853796,39.9326022 51.8823346,39.938699 51.8823346,39.9447958 C51.8823346,41.5741691 53.2008299,42.892605 54.8253502,42.892605 C56.4513929,42.892605 57.7683657,41.5741691 57.7683657,39.9447958 C57.7683657,39.938699 57.7653207,39.9326022 57.7653207,39.9265054 L57.7683657,39.9265054 L57.7683657,4.94908811 L61.6005283,4.94908811 C62.964699,4.94908811 64.0700426,3.84099231 64.0700426,2.47378195 C64.0700426,1.1080958 62.964699,0 61.6005283,0" id="Fill-6"></path>
                            <path d="M11.7918549,19.4003644 C6.42195533,13.7897721 5.83883326,12.0369383 5.83883326,9.17448449 C5.83883326,5.90202001 6.94722195,4.5561485 9.3406107,4.5561485 C11.616766,4.5561485 12.6094438,5.96146394 12.6094438,8.35598732 L12.6094438,11.6863715 C12.6094438,13.2029538 13.8365884,14.4329859 15.3514878,14.4329859 C16.8679097,14.4329859 18.0965768,13.2029538 18.0965768,11.6863715 L18.0965768,7.71429773 C18.0965768,4.73295608 17.3946988,3.27124512 16.4035436,2.3384327 C15.0013101,1.05200512 12.7251547,0.00030484066 9.57507754,0.00030484066 C3.21097767,0.00030484066 0,2.98012229 0,9.875618 C0,15.6020498 3.09526676,18.9903537 6.82998853,22.7307486 C12.9017661,28.7498274 13.076855,29.9188914 13.076855,33.4840029 C13.076855,36.2306172 12.315599,38.3340178 9.22185477,38.3340178 C6.88936649,38.3340178 5.83883326,36.581184 5.83883326,33.7766499 L5.83883326,30.3273778 C5.83883326,28.7147708 4.53099551,27.4070043 2.91865537,27.4070043 C1.30783775,27.4070043 0,28.7147708 0,30.3273778 L0,35.3526761 C0,40.6127017 3.67838883,42.8929098 9.04828841,42.8929098 C15.9939878,42.8929098 18.5624655,39.093071 18.5624655,32.4902223 C18.5624655,27.4070043 17.5119322,25.3599993 11.7918549,19.4003644" id="Fill-8"></path>
                        </g>
                    </g>
                </g>
            </g>
        </g>
    </g>
</svg>