<?xml version="1.0" encoding="UTF-8" standalone="no"?><!DOCTYPE svg PUBLIC "-//W3C//DTD SVG 1.1//EN" "http://www.w3.org/Graphics/SVG/1.1/DTD/svg11.dtd"><svg width="133" height="160" viewBox="0 0 339 426" version="1.1" xmlns="http://www.w3.org/2000/svg" xmlns:xlink="http://www.w3.org/1999/xlink" xml:space="preserve" xmlns:serif="http://www.serif.com/" style="fill-rule:evenodd;clip-rule:evenodd;stroke-linejoin:round;stroke-miterlimit:2;"><g><path d="M25.863,349.335c4.15,0 7.022,-2.978 7.022,-6.702l0,-53.83c0,-5.213 -2.66,-7.979 -6.702,-9.043l0,-2.34c4.042,0 7.979,0.425 12.021,0.425c4.043,0 8.085,-0.425 12.128,-0.425l0,2.34c-4.362,1.171 -5.745,3.724 -5.745,9.362c0,3.191 -0.319,10 -0.319,19.575l0,36.809c2.34,0.425 4.362,0.638 11.277,0.638c18.298,0 21.596,-3.298 24.255,-10.106l3.83,1.915l-4.574,15c-3.405,-1.277 -6.809,-1.703 -10.213,-1.703l-34.894,0c-2.66,0 -5.426,0.426 -8.086,0.426l0,-2.341Z" style="fill:#fff;fill-rule:nonzero;"/><path d="M93.266,292.192c3.063,0 6.127,0.341 9.275,0.341c3.063,0 6.212,-0.341 9.276,-0.341l0,1.872c-3.83,0.511 -4.766,3.064 -4.766,8.51c0,8.085 -0.085,16.169 -0.085,24.253c0,11.403 5.276,19.488 17.956,19.488c6.893,0 15.658,-4 15.658,-13.616l0,-10.041c0,-10.042 -0.766,-20.084 -0.766,-24.339c0,-2.383 -2.297,-3.999 -4.34,-4.255l0,-1.872c3.064,0 6.127,0.341 9.191,0.341c3.063,0 6.212,-0.341 9.275,-0.341l0,1.872c-2.808,0.085 -3.999,3.404 -3.999,6.298c0,3.234 -0.255,12.084 -0.255,23.317l0,18.551c0,4.766 0.936,7.233 4.68,7.489l0,1.872c-2.383,0 -4.85,-0.341 -7.233,-0.341c-2.383,0 -4.766,0.341 -7.149,0.341c0.171,-2.893 0.426,-5.531 0.596,-8.085c-6.212,5.787 -11.488,9.106 -20.168,9.106c-12.595,0 -22.551,-7.233 -22.551,-19.998l0,-14.211c0,-6.638 -0.426,-12.51 -0.426,-17.786c0,-3.319 -0.596,-6.042 -4.169,-6.553l0,-1.872Z" style="fill:#fff;fill-rule:nonzero;"/><path d="M173.088,349.719c3.319,-0.851 5.276,-3.404 5.276,-8.17l0.256,-50.378l3.573,0l41.614,45.783l0,-29.274c0,-10.552 -2.298,-13.02 -6.383,-13.616l0,-1.872c2.808,0 5.616,0.341 8.425,0.341c2.808,0 5.701,-0.341 8.51,-0.341l0,1.872c-3.745,0.681 -5.617,3.66 -5.617,10.553l-0.255,47.995l-2.893,0l-42.294,-46.038l0.34,32.423c0.085,6.637 2.128,9.701 6.213,10.722l0,1.872c-2.809,0 -5.617,-0.341 -8.425,-0.341c-2.808,0 -5.532,0.341 -8.34,0.341l0,-1.872Z" style="fill:#fff;fill-rule:nonzero;"/><path d="M251.713,349.719c3.489,-0.851 4.425,-2.383 4.425,-6.042l0,-24.764c0,-7.489 -0.851,-14.126 -0.851,-18.296c0,-3.574 -1.277,-6.042 -4.425,-6.893l0,-1.532c3.999,0 7.914,0.341 11.914,0.341c3.914,0 7.914,-0.341 11.913,-0.341c23.232,0 37.358,10.212 37.358,29.359c0,19.488 -11.062,30.04 -34.975,30.04c-4.255,0 -8.51,-0.341 -12.679,-0.341c-4.255,0 -8.425,0.341 -12.68,0.341l0,-1.872Zm13.531,-2.213c3.999,0.511 7.318,0.681 10.552,0.681c16.253,0 24.423,-9.957 24.423,-26.295c0,-15.403 -10.722,-26.296 -25.785,-26.296c-2.723,0 -5.361,0.171 -8.765,0.34c-0.085,7.489 -0.425,14.297 -0.425,21.445l0,30.125Z" style="fill:#fff;fill-rule:nonzero;"/><path d="M71.42,402.238c1.56,-0.4 2.479,-1.6 2.479,-3.84l0.12,-23.674l1.68,0l19.557,21.515l0,-13.758c0,-4.959 -1.08,-6.119 -3,-6.398l0,-0.88c1.32,0 2.64,0.159 3.96,0.159c1.32,0 2.679,-0.159 3.999,-0.159l0,0.88c-1.759,0.319 -2.639,1.719 -2.639,4.958l-0.12,22.557l-1.36,0l-19.877,-21.637l0.16,15.238c0.04,3.119 1,4.559 2.92,5.039l0,0.88c-1.32,0 -2.64,-0.16 -3.96,-0.16c-1.32,0 -2.599,0.16 -3.919,0.16l0,-0.88Z" style="fill:#fff;fill-rule:nonzero;"/><path d="M117.331,376.083c-1.48,0.239 -1.64,1.279 -1.64,2.679c0,3.879 -0.16,8.598 -0.16,12.838l0,7.758c0,1.32 0.44,2.84 1.96,2.88l0,0.88c-1.36,0 -2.76,-0.16 -4.119,-0.16c-1.4,0 -2.76,0.16 -4.12,0.16l0,-0.88c1.28,-0.04 2,-1.16 2,-2.88l0,-5.758c0,-4.8 -0.36,-11.839 -0.36,-14.358c0,-1.64 -0.16,-2.96 -1.8,-3.159l0,-0.88c1.36,0 2.72,0.159 4.12,0.159c1.359,0 2.759,-0.159 4.119,-0.159l0,0.88Z" style="fill:#fff;fill-rule:nonzero;"/><path d="M137.286,403.598l-11.038,-24.276c-0.44,-1 -1.32,-2.64 -2.879,-3.239l0,-0.88c1.519,0 3.039,0.159 4.559,0.159c1.48,0 2.999,-0.159 4.519,-0.159l0,0.88c-0.76,0.159 -1.48,0.519 -1.48,1.439c0,0.36 0.12,1.04 0.72,2.479l7.319,17.478l6.239,-16.317c0.44,-1.121 0.56,-2.04 0.56,-2.64c0,-1.56 -0.52,-2.2 -2.08,-2.439l0,-0.88c1.36,0 2.72,0.159 4.08,0.159c1.36,0 2.719,-0.159 4.079,-0.159l0,0.88c-1.64,0.239 -2.56,1.599 -3.36,3.599l-9.478,23.916l-1.76,0Z" style="fill:#fff;fill-rule:nonzero;"/><path d="M157.365,402.078c1.56,-0.16 2.32,-1.12 2.32,-2.44l0,-6.759c0,-5.439 -0.32,-11.158 -0.32,-14.717c0,-1 -0.76,-1.68 -2,-1.92l0,-0.88l15.798,0c1.079,0 2.439,-0.399 3.159,-0.638c0,1.038 -0.16,1.998 -0.16,2.998c0,1 0.16,1.96 0.16,2.96l-1.52,0c-0.679,-1.92 -1.639,-3.4 -3.839,-3.4l-6.999,0l0,10.638l6.039,0c2.32,0 3.079,-0.2 4.039,-2.159l1.28,0c0,1.159 -0.16,2.319 -0.16,3.479c0,1.2 0.16,2.36 0.16,3.519l-1.36,0c-0.88,-2.759 -1.639,-2.919 -3.959,-2.919l-6.039,0l0,11.198l6.799,0c2.96,0 4.039,-0.48 5.839,-2.999l1.24,0.64l-1.4,4.919c-1.24,-0.48 -2.48,-0.64 -3.759,-0.64l-15.318,0l0,-0.88Z" style="fill:#fff;fill-rule:nonzero;"/><path d="M186.444,402.238c1.359,-0.32 1.999,-0.96 1.999,-2.32l0,-10.278c0,-3.439 -0.2,-6.879 -0.2,-10.278c0,-1.88 -0.2,-2.88 -2.239,-3.279l0,-0.88c1.28,0 2.599,0.159 3.879,0.159c1.2,0 2.4,-0.159 5.399,-0.159c7.199,0 10.718,3.599 10.718,7.918c0,4.04 -3.679,6.639 -7.238,7.519l8.078,9.359c0.6,0.719 1.96,2.039 3.04,2.239l0,0.88c-1.32,0 -2.68,-0.16 -4,-0.16c-1.319,0 -2.639,0.16 -3.959,0.16l0,-0.88c0.28,-0.04 0.4,-0.2 0.44,-0.48c0,-0.36 -0.12,-0.72 -0.6,-1.28l-6.639,-7.758c-0.6,-0.68 -1.439,-1.72 -2.399,-1.72l0,7.918c0,1.68 0.199,2.88 2.239,3.32l0,0.88c-1.44,0 -2.839,-0.16 -4.279,-0.16c-1.44,0 -2.8,0.16 -4.239,0.16l0,-0.88Zm6.279,-12.478c0.599,0.04 1.079,0.12 1.559,0.12c3.68,0 6.839,-2.48 6.839,-6.279c0,-3.679 -1.68,-6.959 -6.039,-6.959c-1.04,0 -2.16,0.12 -2.16,1.12l-0.199,11.998Z" style="fill:#fff;fill-rule:nonzero;"/><path d="M215.758,397.679l1.52,0c1.08,3.039 3.559,4.239 6.559,4.239c2.72,0 5.199,-2.2 5.199,-4.999c0,-8.438 -13.638,-3.24 -13.638,-14.078c0,-5.159 4.519,-8.117 9.239,-8.117c2.599,0 5.799,0.959 7.118,1.838l0.401,4.279l-1.44,0c-0.64,-2.639 -3.44,-4.439 -6.039,-4.439c-3,0 -5.399,2 -5.399,5.079c0,7.039 13.637,2.96 13.637,13.398c0,5.319 -4.279,8.719 -9.358,8.719c-2.68,0 -5.399,-0.32 -7.799,-1.56l0,-4.359Z" style="fill:#fff;fill-rule:nonzero;"/><path d="M250.471,376.083c-1.479,0.239 -1.639,1.279 -1.639,2.679c0,3.879 -0.161,8.598 -0.161,12.838l0,7.758c0,1.32 0.44,2.84 1.96,2.88l0,0.88c-1.36,0 -2.759,-0.16 -4.119,-0.16c-1.4,0 -2.76,0.16 -4.119,0.16l0,-0.88c1.279,-0.04 1.999,-1.16 1.999,-2.88l0,-5.758c0,-4.8 -0.36,-11.839 -0.36,-14.358c0,-1.64 -0.16,-2.96 -1.8,-3.159l0,-0.88c1.36,0 2.72,0.159 4.12,0.159c1.36,0 2.759,-0.159 4.119,-0.159l0,0.88Z" style="fill:#fff;fill-rule:nonzero;"/><path d="M282.304,380.362l-1.519,0c-0.401,-2.36 -1.6,-3.08 -3.88,-3.08l-5.039,0c0,3.44 -0.2,7.839 -0.2,12.638l0,8.519c0,2.479 0.76,3.239 2.52,3.799l0,0.88c-1.56,0 -3.08,-0.16 -4.6,-0.16c-1.52,0 -3.039,0.16 -4.599,0.16l0,-0.88c1.84,-0.6 2.4,-1.48 2.4,-3.799l0,-6.279c0,-5.76 -0.32,-11.438 -0.4,-14.878l-5.399,0c-2.28,0 -3.48,0.72 -3.88,3.08l-1.52,0l0,-5.638c1.52,0.399 3.08,0.638 4.64,0.638l17.677,0c1.119,0 2.879,-0.239 3.799,-0.638l0,5.638Z" style="fill:#fff;fill-rule:nonzero;"/><path d="M293.299,402.238c1.92,-0.32 2.48,-1.24 2.48,-3.199l0,-7.679l-7.479,-12.438c-0.76,-1.24 -1.159,-2.08 -2.4,-2.839l0,-0.88c1.36,0 2.76,0.159 4.12,0.159c1.36,0 2.759,-0.159 4.119,-0.159l0,0.88c-0.76,0.159 -1.28,0.559 -1.28,1.399c0,0.4 0.241,1.56 0.8,2.519l5.079,8.959l5,-8.598c0.76,-1.32 0.88,-2.28 0.88,-3c0,-0.88 -0.88,-1.24 -1.68,-1.279l0,-0.88c1.2,0 2.399,0.159 3.639,0.159c1.2,0 2.4,-0.159 3.6,-0.159l0,0.88c-1.32,0.479 -2.04,1.599 -3.12,3.319l-6.999,11.398l0,8.239c0,1.959 0.56,2.879 2.32,3.199l0,0.88c-1.52,0 -3.04,-0.16 -4.52,-0.16c-1.519,0 -3.039,0.16 -4.559,0.16l0,-0.88Z" style="fill:#fff;fill-rule:nonzero;"/><path d="M147.907,215.851l0,9.729c0,0.49 2.216,1.335 2.216,1.335l-6.977,0c0,0 2.084,-0.845 2.084,-1.268l0,-8.204l-2.171,0.362l-0.033,-0.39l4.881,-1.564Z" style="fill:#fff;fill-rule:nonzero;"/><path d="M192.624,216.066c-3.126,0.688 -4.728,2.678 -5.175,4.779c0.782,-0.413 1.475,-0.603 2.302,-0.603c2.28,0 3.8,1.326 3.8,3.273c0,2.135 -1.833,3.634 -4.448,3.634c-2.883,0 -4.828,-1.808 -4.828,-4.513c0,-3.375 3.301,-6.782 8.294,-6.782l0.055,0.212Zm-3.588,5.003c-0.805,0 -1.364,0.327 -1.765,0.568c-0.045,0.224 -0.135,0.776 -0.135,1.654c0,1.206 0.157,3.221 1.855,3.221c1.676,0 1.699,-1.568 1.699,-2.79c0,-1.103 -0.067,-2.653 -1.654,-2.653Z" style="fill:#fff;fill-rule:nonzero;"/><path d="M177.955,216.066c-3.127,0.688 -4.728,2.678 -5.175,4.779c0.782,-0.413 1.475,-0.603 2.302,-0.603c2.279,0 3.799,1.326 3.799,3.273c0,2.135 -1.832,3.634 -4.447,3.634c-2.884,0 -4.828,-1.808 -4.828,-4.513c0,-3.375 3.3,-6.782 8.294,-6.782l0.055,0.212Zm-3.588,5.003c-0.805,0 -1.364,0.327 -1.766,0.568c-0.045,0.224 -0.134,0.776 -0.134,1.654c0,1.206 0.156,3.221 1.855,3.221c1.676,0 1.698,-1.568 1.698,-2.79c0,-1.103 -0.066,-2.653 -1.653,-2.653Z" style="fill:#fff;fill-rule:nonzero;"/><path d="M163.184,216.066c-3.127,0.688 -4.729,2.678 -5.176,4.779c0.782,-0.413 1.475,-0.603 2.303,-0.603c2.279,0 3.799,1.326 3.799,3.273c0,2.135 -1.833,3.634 -4.447,3.634c-2.884,0 -4.829,-1.808 -4.829,-4.513c0,-3.375 3.301,-6.782 8.294,-6.782l0.056,0.212Zm-3.589,5.003c-0.805,0 -1.363,0.327 -1.765,0.568c-0.045,0.224 -0.135,0.776 -0.135,1.654c0,1.206 0.157,3.221 1.856,3.221c1.676,0 1.698,-1.568 1.698,-2.79c0,-1.103 -0.067,-2.653 -1.654,-2.653Z" style="fill:#fff;fill-rule:nonzero;"/><path d="M66.947,122.781c1.039,0.335 2.508,1.072 3.475,1.726c-0.153,0.305 -0.26,0.701 -0.336,1.163c-0.154,0.946 0.042,2.011 -0.205,3.518c-0.676,4.123 -4.056,6.852 -7.695,6.255c-3.701,-0.607 -6.04,-4.48 -5.333,-8.783c0.343,-2.092 1.391,-3.324 1.457,-3.726c0.027,-0.161 -0.053,-0.938 -0.053,-0.938l3.549,0.396c0,0 -3.585,2.344 -3.902,4.275c-0.471,2.876 1.374,5.223 4.552,5.744c3.237,0.531 6.094,-1.272 6.565,-4.148c0.304,-1.85 -2.074,-5.482 -2.074,-5.482Z" style="fill:#fff;fill-rule:nonzero;"/><path d="M100.072,70.223l-7.576,7.868c0,0 0.503,-2.344 -0.216,-3.037l-5.872,-5.654c-0.866,-0.834 -3.014,-0.13 -3.014,-0.13l4.791,-4.976c0,0 -0.546,2.388 0.145,3.052l6.047,5.824c0.543,0.523 0.831,0.489 1.382,-0.084l1.795,-1.864c0.947,-0.984 0.996,-4.53 0.996,-4.53l1.522,3.531Z" style="fill:#fff;fill-rule:nonzero;"/><path d="M93.901,58.772l5.04,-4.074c0,0 -0.68,2.174 -0.013,2.998l5.072,6.277c0.628,0.776 2.909,0.584 2.909,0.584l-5.04,4.073c0,0 0.559,-2.129 -0.005,-2.826l-5.124,-6.34c-0.666,-0.824 -2.839,-0.692 -2.839,-0.692Z" style="fill:#fff;fill-rule:nonzero;"/><path d="M110.846,58.788c0.65,1.06 2.998,1.031 2.998,1.031l-4.205,2.576c0,0 0.775,-1.933 0.339,-2.645l-4.886,-7.976c-0.542,-0.027 -2.04,-0.209 -2.04,-0.209l3.58,-2.192l11.624,3.06l-3.214,-5.248c-0.767,-1.252 -3.145,-1.038 -3.145,-1.038l4.484,-2.746c0,0 -1.046,1.883 -0.641,2.543l5.695,9.297l-0.956,0.586l-13.657,-3.608l4.024,6.569Z" style="fill:#fff;fill-rule:nonzero;"/><path d="M184.91,41.453c0,0 1.978,3.544 3.553,3.877c1.316,0.279 2.49,-0.348 2.726,-1.464c0.63,-2.971 -5.791,-4.226 -4.955,-8.174c0.406,-1.913 2.364,-2.894 4.736,-2.392c1.535,0.325 2.621,1.097 2.92,1.16c0.14,0.03 0.268,0.016 0.485,-0.126l0.419,0.089l-0.306,3.309c0,0 -1.946,-3.203 -3.481,-3.528c-1.116,-0.237 -2.08,0.184 -2.245,0.961c-0.388,1.835 2.849,2.875 4.609,5.581c0.645,0.99 0.782,1.915 0.579,2.872c-0.439,2.073 -2.66,3.311 -5.032,2.808c-1.594,-0.338 -2.915,-1.284 -3.274,-1.36c-0.179,-0.038 -0.34,0.032 -0.486,0.23l-0.518,-0.109l0.27,-3.734Z" style="fill:#fff;fill-rule:nonzero;"/><path d="M201.316,36.394l6.14,2.072c0,0 -2.2,0.591 -2.539,1.595l-2.58,7.646c-0.319,0.946 1.066,2.769 1.066,2.769l-6.14,-2.073c0,0 2.096,-0.669 2.383,-1.518l2.607,-7.723c0.339,-1.004 -0.937,-2.768 -0.937,-2.768Z" style="fill:#fff;fill-rule:nonzero;"/><path d="M219.946,53.754l-1.368,2.71c-1.613,-0.06 -3.762,-0.461 -5.327,-1.251c-4.602,-2.324 -5.526,-6.009 -3.762,-9.502c1.681,-3.329 5.667,-4.398 9.542,-2.441c1.874,0.946 3.008,2.318 3.626,2.63c0.273,0.138 0.455,0.139 0.665,0.039l0.455,0.23l-1.681,3.329l-0.728,-0.368c0.446,-2.103 -0.386,-3.893 -2.277,-4.848c-2.583,-1.304 -5.395,-0.167 -6.883,2.78c-1.506,2.983 -0.753,6.148 1.775,7.425c0.692,0.349 1.547,0.553 2.185,0.51l1.268,-2.51c0.459,-0.91 -1.31,-2.968 -1.31,-2.968l6.04,3.05c0,0 -1.797,0.348 -2.22,1.185Z" style="fill:#fff;fill-rule:nonzero;"/><path d="M229.364,49.701l5.317,3.703c0,0 -2.277,-0.046 -2.882,0.824l-4.613,6.622c-0.57,0.818 0.251,2.955 0.251,2.955l-5.317,-3.703c0,0 2.199,-0.057 2.712,-0.793l4.659,-6.689c0.606,-0.87 -0.127,-2.919 -0.127,-2.919Z" style="fill:#fff;fill-rule:nonzero;"/><path d="M248.361,85.192l-6.863,-8.498c0,0 2.263,0.792 3.04,0.165l6.342,-5.122c0.935,-0.755 0.505,-2.975 0.505,-2.975l4.34,5.375c0,0 -2.301,-0.84 -3.047,-0.238l-6.532,5.275c-0.586,0.474 -0.588,0.764 -0.088,1.382l1.626,2.013c0.857,1.063 4.37,1.553 4.37,1.553l-3.693,1.07Z" style="fill:#fff;fill-rule:nonzero;"/><path d="M239.305,74.23l-8.029,-7.405c0,0 2.354,0.453 3.032,-0.282l5.525,-5.992c0.815,-0.884 0.066,-3.016 0.066,-3.016l5.078,4.683c0,0 -2.399,-0.494 -3.049,0.21l-5.692,6.172c-0.51,0.554 -0.47,0.841 0.114,1.38l1.902,1.754c1.004,0.926 4.551,0.898 4.551,0.898l-3.498,1.598Z" style="fill:#fff;fill-rule:nonzero;"/><path d="M259.07,82.627c0.916,-1.329 0.994,-3.226 0.994,-3.226l3.622,6.073c0,0 -2.362,-1.296 -3.102,-0.19l-4.028,5.977l7.719,-0.646c0.741,-0.11 0.852,-2.726 0.852,-2.726l2.652,4.445c0,0 -2.073,-0.851 -3.801,-0.604l-11.917,0.997l7.009,-10.1Z" style="fill:#fff;fill-rule:nonzero;"/><path d="M267.803,99.137l-0.014,-0.039l-6.981,2.022c-1.294,0.376 -2.086,2.52 -2.086,2.52l-1.523,-4.26c0,0 1.738,1.11 3.365,0.636l7.097,-2.062c0.999,-0.293 1.747,-2.075 1.747,-2.075l1.448,4.049l-6.721,6.624l9.343,0.705l1.476,4.126c0,0 -1.354,-1.183 -2.702,-0.593l-6.915,2.993c-1.578,0.673 -2.044,2.636 -2.044,2.636l-2.162,-6.044c0,0 1.394,1.536 2.641,1.09c0.307,-0.11 0.607,-0.239 0.888,-0.361l6.653,-2.878l-0.013,-0.039l-11.246,-0.825l-0.165,-0.46l7.914,-7.765Z" style="fill:#fff;fill-rule:nonzero;"/><path d="M269.111,144.644c-1.242,-0.051 -2.527,1.915 -2.527,1.915l0.204,-4.927c0,0 1.172,1.721 2.007,1.755l9.346,0.386c0.324,-0.435 1.31,-1.577 1.31,-1.577l-0.174,4.194l-9.017,7.949l6.149,0.254c1.466,0.061 2.613,-2.033 2.613,-2.033l-0.217,5.253c0,0 -0.981,-1.917 -1.755,-1.949l-10.893,-0.45l0.047,-1.12l10.603,-9.332l-7.696,-0.318Z" style="fill:#fff;fill-rule:nonzero;"/><path d="M277.894,161.942l-1.265,6.356c0,0 -0.87,-2.106 -1.909,-2.312l-7.915,-1.575c-0.979,-0.195 -2.608,1.414 -2.608,1.414l1.265,-6.356c0,0 0.933,1.993 1.812,2.168l7.995,1.591c1.039,0.207 2.625,-1.286 2.625,-1.286Z" style="fill:#fff;fill-rule:nonzero;"/><path d="M264.731,196.279l2.035,-3.973l-4.082,-2.089l-1.504,2.938c-0.512,0.998 0.237,2.755 0.237,2.755l-3.609,-1.849c0,0 1.798,-0.292 2.513,-1.689l1.365,-2.666l-3.264,-1.672c-0.78,-0.4 -1.018,-0.338 -1.287,0.188l-1.551,3.029c-0.604,1.179 0.429,3.723 0.429,3.723l-2.737,-1.676l5.592,-10.92c0,0 0.019,2.735 0.908,3.19l7.237,3.706c0.98,0.501 2.933,-0.719 2.933,-0.719l-5.118,9.994l-2.723,-1.166c0,0 2.199,-0.27 2.626,-1.104Z" style="fill:#fff;fill-rule:nonzero;"/><path d="M243.7,212.391c0,0 -4.051,-0.25 -5.182,0.895c-0.945,0.956 -1.053,2.282 -0.241,3.085c2.159,2.134 6.685,-2.59 9.555,0.246c1.391,1.375 1.159,3.552 -0.545,5.277c-1.103,1.116 -2.34,1.614 -2.555,1.831c-0.1,0.102 -0.456,0.781 -0.456,0.781l-2.62,-2.045c0,0 3.747,0.093 4.85,-1.023c0.802,-0.812 0.969,-1.851 0.404,-2.409c-1.334,-1.318 -3.958,0.844 -7.186,0.864c-1.182,0.007 -2.034,-0.377 -2.729,-1.065c-1.508,-1.49 -1.35,-4.027 0.355,-5.751c1.146,-1.16 2.655,-1.76 2.913,-2.021c0.129,-0.13 0.156,-0.304 0.069,-0.534l0.372,-0.376l2.996,2.245Z" style="fill:#fff;fill-rule:nonzero;"/><path d="M239.42,228.715l-5.106,3.992c0,0 0.716,-2.163 0.063,-2.998l-4.97,-6.357c-0.616,-0.787 -2.899,-0.631 -2.899,-0.631l5.105,-3.992c0,0 -0.593,2.12 -0.041,2.826l5.02,6.422c0.653,0.835 2.828,0.738 2.828,0.738Z" style="fill:#fff;fill-rule:nonzero;"/><path d="M183.638,253.751l-6.447,0.664c0,0 1.756,-1.451 1.647,-2.505l-0.825,-8.027c-0.103,-0.993 -2.119,-2.076 -2.119,-2.076l6.446,-0.664c0,0 -1.63,1.479 -1.539,2.371l0.835,8.109c0.109,1.053 2.002,2.128 2.002,2.128Z" style="fill:#fff;fill-rule:nonzero;"/><path d="M170.795,245.627c0,0 -2.629,-3.092 -4.238,-3.114c-1.346,-0.018 -2.375,0.824 -2.391,1.965c-0.041,3.037 6.502,3.022 6.448,7.057c-0.026,1.956 -1.756,3.298 -4.181,3.266c-1.568,-0.021 -2.784,-0.568 -3.09,-0.572c-0.142,-0.001 -0.879,0.213 -0.879,0.213l-0.343,-3.306c0,0 2.531,2.764 4.1,2.785c1.141,0.015 2.005,-0.584 2.016,-1.379c0.025,-1.875 -3.353,-2.266 -5.605,-4.579c-0.824,-0.846 -1.138,-1.727 -1.126,-2.705c0.029,-2.119 1.966,-3.764 4.391,-3.732c1.63,0.022 3.109,0.694 3.476,0.699c0.183,0.002 0.962,-0.314 0.962,-0.314l0.46,3.716Z" style="fill:#fff;fill-rule:nonzero;"/><path d="M135.394,241.05l0.8,-2.929c1.593,-0.262 3.779,-0.299 5.47,0.163c4.973,1.358 6.615,4.785 5.584,8.559c-0.982,3.598 -4.675,5.441 -8.863,4.298c-2.024,-0.553 -3.409,-1.671 -4.078,-1.853c-0.295,-0.081 -1.151,-0.04 -1.151,-0.04l0.983,-3.598c0,0 1.941,3.953 3.985,4.511c2.792,0.762 5.32,-0.913 6.189,-4.098c0.881,-3.224 -0.489,-6.175 -3.222,-6.921c-0.747,-0.205 -1.626,-0.233 -2.242,-0.064l-0.741,2.713c-0.433,1.77 1.875,2.646 1.875,2.646l-6.526,-1.782c0,0 1.691,-0.7 1.937,-1.605Z" style="fill:#fff;fill-rule:nonzero;"/><path d="M95.231,214.162l-2.503,2.625l4.865,4.642l2.532,-2.654c0.746,-0.782 0.248,-2.975 0.248,-2.975l4.732,4.515c0,0 -2.213,-0.366 -2.917,0.371l-5.598,5.869c-0.704,0.737 -0.234,2.931 -0.234,2.931l-4.733,-4.515c0,0 2.144,0.468 2.932,-0.357l2.209,-2.315l-4.867,-4.642l-2.166,2.27c-0.787,0.826 -0.305,2.948 -0.305,2.948l-4.718,-4.502c0,0 2.187,0.454 2.946,-0.343l5.571,-5.839c0.732,-0.766 0.232,-2.988 0.232,-2.988l4.719,4.501c0,0 -2.185,-0.338 -2.945,0.458Z" style="fill:#fff;fill-rule:nonzero;"/><path d="M60.213,163.69l0.005,0.04l7.251,-0.509c1.344,-0.097 2.568,-2.027 2.568,-2.027l0.595,4.485c0,0 -1.467,-1.45 -3.157,-1.328l-7.372,0.525c-1.038,0.077 -2.143,1.662 -2.143,1.662l-0.566,-4.263l7.962,-5.065l-8.986,-2.651l-0.576,-4.344c0,0 1.075,1.441 2.516,1.147l7.39,-1.474c1.684,-0.327 2.552,-2.148 2.552,-2.148l0.844,6.363c0,0 -1.039,-1.794 -2.352,-1.62c-0.324,0.043 -0.644,0.106 -0.945,0.167l-7.11,1.416l0.006,0.04l10.822,3.169l0.065,0.485l-9.369,5.93Z" style="fill:#fff;fill-rule:nonzero;"/><path d="M275.922,127.201c1.402,-0.801 2.295,-2.477 2.295,-2.477l0.633,7.043c0,0 -1.568,-2.192 -2.715,-1.516l-5.535,3.182l6.71,3.055c0.715,0.222 1.791,-1.921 1.791,-1.921l0.463,5.156c0,0 -1.5,-1.666 -3.163,-2.192l-10.46,-4.605l9.981,-5.725Z" style="fill:#fff;fill-rule:nonzero;"/><path d="M272.797,173.128c1.6,-0.21 3.061,-1.423 3.061,-1.423l-2.082,6.758c0,0 -0.621,-2.623 -1.938,-2.431l-6.329,0.847l5.053,5.37c0.578,0.477 2.386,-1.099 2.386,-1.099l-1.524,4.947c0,0 -0.758,-2.11 -2.098,-3.227l-7.936,-8.224l11.407,-1.518Z" style="fill:#fff;fill-rule:nonzero;"/><path d="M64.963,181.242c-1.17,1.112 -1.637,2.953 -1.637,2.953l-2.294,-6.689c0,0 2.045,1.755 2.997,0.825l4.617,-4.41l-7.244,-1.367c-0.748,-0.045 -1.282,2.292 -1.282,2.292l-1.68,-4.896c0,0 1.854,1.26 3.596,1.374l11.255,1.978l-8.328,7.94Z" style="fill:#fff;fill-rule:nonzero;"/><path d="M109.893,226.053c0.603,-0.871 -0.538,-3.198 -0.538,-3.198l6.032,4.176c0,0 -2.567,-0.265 -3.182,0.623l-5.637,8.221l1.977,1.369c1.29,0.893 3.865,-0.249 3.865,-0.249l-2.093,2.512l-10.656,-7.378l1.489,-2.929c0,0 -0.162,2.813 1.128,3.706l1.977,1.368l5.638,-8.221Z" style="fill:#fff;fill-rule:nonzero;"/><path d="M190.229,241.744c-0.241,-1.032 -2.731,-1.747 -2.731,-1.747l7.143,-1.67c0,0 -1.919,1.725 -1.674,2.776l2.235,9.398l2.341,-0.547c1.528,-0.357 2.41,-3.033 2.41,-3.033l0.458,3.237l-12.621,2.952l-1.172,-3.07c0,0 1.976,2.007 3.504,1.649l2.341,-0.547l-2.234,-9.398Z" style="fill:#fff;fill-rule:nonzero;"/><path d="M218.301,230.75c-0.533,-0.915 -3.124,-0.869 -3.124,-0.869l6.34,-3.692c0,0 -1.33,2.213 -0.786,3.146l5.056,8.592l2.077,-1.21c1.356,-0.79 1.414,-3.606 1.414,-3.606l1.387,2.96l-11.199,6.523l-2.022,-2.592c0,0 2.478,1.34 3.834,0.55l2.078,-1.21l-5.055,-8.592Z" style="fill:#fff;fill-rule:nonzero;"/><path d="M268.924,121.116c0.009,-1.106 0.912,-1.994 2.018,-1.986c1.105,0.009 1.994,0.912 1.985,2.017c-0.009,1.106 -0.911,1.995 -2.017,1.986c-1.105,-0.009 -1.995,-0.912 -1.986,-2.017Z" style="fill:#fff;fill-rule:nonzero;"/><path d="M152.356,246.981c0.009,-1.106 0.913,-1.994 2.018,-1.985c1.105,0.008 1.995,0.911 1.985,2.017c-0.008,1.105 -0.911,1.994 -2.017,1.985c-1.105,-0.008 -1.994,-0.912 -1.986,-2.017Z" style="fill:#fff;fill-rule:nonzero;"/><path d="M60.429,142.483c0.008,-1.105 0.912,-1.995 2.017,-1.985c1.105,0.008 1.994,0.911 1.986,2.017c-0.009,1.105 -0.913,1.994 -2.018,1.985c-1.105,-0.008 -1.994,-0.912 -1.985,-2.017Z" style="fill:#fff;fill-rule:nonzero;"/><path d="M78.355,85.245c-2.489,-1.808 -3.111,-4.35 -1.59,-6.444c1.82,-2.506 5.252,-2.029 7.906,-0.101c2.275,1.653 3.475,4.161 1.811,6.453c-1.689,2.325 -4.977,2.38 -8.127,0.092Zm-0.993,3.032c2.77,2.012 6.799,1.563 9.553,-2.23c2.863,-3.94 1.882,-8.103 -1.053,-10.235c-3.083,-2.239 -7.016,-1.368 -9.519,2.078c-2.671,3.677 -2.245,8.016 1.019,10.387Z" style="fill:#fff;fill-rule:nonzero;"/><path d="M130.463,46.065l-4.014,1.267l0.183,-5.92l3.831,4.653Zm2.558,-1.627l3.574,-1.355c1.47,-0.547 3.469,0.077 3.469,0.077l-2.805,-3.23c0,0 -0.194,1.769 -1.244,2.16l-3.754,1.524l-3.303,-4.033l5.431,-1.806c0.878,-0.327 3.078,0.464 3.078,0.464l-2.347,-2.195l-11.544,3.966c0,0 1.461,0.392 1.208,2.368l-0.163,8.68c-0.173,1.522 -1.102,3.077 -1.102,3.077l4.393,-1.635c0,0 -1.904,-0.792 -1.789,-1.77l0.219,-2.489l4.823,-1.471l2.711,3.324l10.672,-4.092l-2.261,-2.479c0,0 0.79,1.831 -0.451,2.293l-5.679,2.22l-3.136,-3.598Z" style="fill:#fff;fill-rule:nonzero;"/><path d="M75.693,100.84c0.942,0.439 3.006,-1.05 3.006,-1.05l-3.009,6.466c0,0 -0.112,-2.367 -1.184,-2.866l-7.298,-3.396c-0.886,-0.413 -2.993,0.877 -2.993,0.877c0.375,-0.95 0.665,-1.668 0.962,-2.452c0.407,-1.069 0.971,-2.425 1.28,-3.09c1.264,-2.716 2.303,-4.031 3.657,-4.524c0.893,-0.327 1.724,-0.277 2.519,0.093c1.404,0.653 2.039,2.185 1.701,4.119c1.584,-0.747 3.345,-0.715 5.267,-1.416c1.11,-0.405 2.945,-1.596 2.945,-1.596c-0.171,0.415 -0.256,0.6 -0.514,1.154c-1.066,2.291 -1.837,3.078 -3.11,3.543c-1.353,0.494 -3.792,0.662 -5.359,1.372l-0.679,1.46l2.809,1.306Zm-3.585,-1.668l0.336,-0.72c1.04,-2.236 0.958,-3.847 -1.019,-4.767c-1.958,-0.911 -3.357,0.259 -4.191,2.051l-0.446,0.96l5.32,2.476Z" style="fill:#fff;fill-rule:nonzero;"/><path d="M68.243,116.49l1.741,1.427c0.76,0.617 2.492,-1.292 2.492,-1.292l-1.587,5.35c0,0 -0.512,-2.079 -1.554,-2.931l-9.742,-8.258l12.817,-1.987c1.279,-0.198 2.795,-1.38 2.795,-1.38l-1.945,6.561c0,0 -0.496,-2.446 -1.449,-2.285l-2.257,0.374l-1.311,4.421Zm-4.117,-3.52l3.482,2.855l1.054,-3.554l-4.536,0.699Z" style="fill:#fff;fill-rule:nonzero;"/><path d="M77.773,189.964c0.918,-0.488 0.974,-3.032 0.974,-3.032l3.346,6.298c0,0 -1.956,-1.337 -3,-0.783l-7.108,3.777c-0.864,0.459 -1.104,2.917 -1.104,2.917c-0.532,-0.871 -0.931,-1.536 -1.378,-2.245c-0.607,-0.969 -1.349,-2.236 -1.693,-2.884c-1.406,-2.645 -1.829,-4.266 -1.407,-5.644c0.278,-0.91 0.818,-1.543 1.592,-1.954c1.368,-0.727 2.974,-0.311 4.313,1.124c0.358,-1.714 1.445,-3.099 2.044,-5.056c0.346,-1.129 0.501,-3.312 0.501,-3.312c0.229,0.386 0.324,0.566 0.611,1.106c1.186,2.231 1.349,3.321 0.953,4.617c-0.421,1.377 -1.756,3.425 -2.134,5.103l0.755,1.421l2.735,-1.453Zm-3.423,1.717l-0.373,-0.702c-1.157,-2.178 -2.493,-3.084 -4.418,-2.061c-1.908,1.014 -1.817,2.835 -0.89,4.58l0.497,0.936l5.184,-2.753Z" style="fill:#fff;fill-rule:nonzero;"/><path d="M76.814,208.881c-2.535,-3.423 -2.185,-7.435 0.878,-9.703c2.915,-2.159 7.18,-1.844 10.078,2.07c2.791,3.766 2.008,7.743 -0.743,9.781c-3.242,2.401 -7.508,1.504 -10.213,-2.148Zm9.974,-7.488c-1.686,-2.277 -4.44,-1.886 -6.7,-0.212c-2.636,1.953 -4.122,5.082 -2.278,7.571c1.54,2.08 4.151,2.25 6.624,0.419c3.128,-2.316 4.064,-5.469 2.354,-7.778Z" style="fill:#fff;fill-rule:nonzero;"/><path d="M120.384,244.632c-3.864,-1.793 -5.475,-5.484 -3.871,-8.941c1.527,-3.29 5.423,-5.054 9.841,-3.003c4.251,1.973 5.467,5.84 4.026,8.945c-1.698,3.66 -5.874,4.912 -9.996,2.999Zm5.176,-11.347c-2.569,-1.192 -4.8,0.468 -5.984,3.019c-1.381,2.976 -1.189,6.435 1.62,7.739c2.347,1.09 4.722,-0.01 6.018,-2.801c1.639,-3.531 0.952,-6.747 -1.654,-7.957Z" style="fill:#fff;fill-rule:nonzero;"/><path d="M250.296,201.595c-0.831,-0.623 -3.158,0.409 -3.158,0.409l4.277,-5.708c0,0 -0.378,2.34 0.568,3.049l6.441,4.827c0.783,0.586 3.11,-0.242 3.11,-0.242c-0.562,0.852 -0.994,1.496 -1.446,2.201c-0.62,0.963 -1.45,2.174 -1.89,2.761c-1.797,2.397 -3.084,3.469 -4.511,3.673c-0.941,0.135 -1.744,-0.085 -2.445,-0.61c-1.24,-0.929 -1.546,-2.559 -0.817,-4.381c-1.703,0.404 -3.42,0.009 -5.445,0.299c-1.169,0.167 -3.211,0.955 -3.211,0.955c0.252,-0.371 0.375,-0.534 0.741,-1.023c1.515,-2.022 2.432,-2.634 3.773,-2.826c1.426,-0.205 3.848,0.133 5.527,-0.238l0.965,-1.288l-2.479,-1.858Zm3.105,2.43l-0.477,0.636c-1.478,1.973 -1.731,3.567 0.014,4.875c1.729,1.295 3.338,0.439 4.524,-1.143l0.635,-0.848l-4.696,-3.52Z" style="fill:#fff;fill-rule:nonzero;"/><path d="M209.413,237.162l0.048,-2.251c0.015,-0.978 -2.555,-1.162 -2.555,-1.162l5.188,-2.055c0,0 -1.32,1.686 -1.346,3.032l-0.481,12.762l-9.477,-8.856c-0.945,-0.884 -2.811,-1.346 -2.811,-1.346l6.362,-2.521c0,0 -1.619,1.9 -0.903,2.551l1.687,1.544l4.288,-1.698Zm-0.227,5.411l0.096,-4.501l-3.446,1.365l3.35,3.136Z" style="fill:#fff;fill-rule:nonzero;"/><path d="M169.002,60.444c-0.555,-1.466 -2.027,-2.577 -2.027,-2.577l6.851,0.464c0,0 -2.34,1.17 -1.866,2.373l2.21,5.793l3.951,-5.971c0.321,-0.653 -1.57,-2.01 -1.57,-2.01l5.014,0.339c0,0 -1.825,1.185 -2.582,2.701l-6.007,9.332l-3.974,-10.444Z" style="fill:#fff;fill-rule:nonzero;"/><path d="M112.735,81.383c-1.396,-0.713 -3.232,-0.549 -3.232,-0.549l5.389,-4.256c0,0 -0.949,2.439 0.209,3.012l5.528,2.809l-1.082,-7.078c-0.199,-0.699 -2.513,-0.435 -2.513,-0.435l3.944,-3.116c0,0 -0.557,2.104 -0.1,3.736l1.814,10.949l-9.957,-5.072Z" style="fill:#fff;fill-rule:nonzero;"/><path d="M218.365,77.611c0.473,-1.494 0.008,-3.279 0.008,-3.279l5.086,4.613c0,0 -2.562,-0.533 -2.936,0.704l-1.907,6.258l6.85,-2.576c0.657,-0.312 0.016,-2.551 0.016,-2.551l3.723,3.377c0,0 -2.168,-0.202 -3.702,0.517l-10.5,3.593l3.362,-10.656Z" style="fill:#fff;fill-rule:nonzero;"/><path d="M134.363,76.327c0.437,0.931 2.947,1.109 2.947,1.109l-6.45,3.026c0,0 1.476,-2.026 1.031,-2.975l-4.152,-8.745l-2.114,0.992c-1.379,0.647 -1.677,3.367 -1.677,3.367l-1.088,-2.983l11.394,-5.347l1.732,2.68c0,0 -2.281,-1.509 -3.661,-0.861l-2.114,0.992l4.152,8.745Z" style="fill:#fff;fill-rule:nonzero;"/><path d="M186.099,62.583l-0.038,-0.011l-2.455,6.618c-0.453,1.227 0.764,3.083 0.764,3.083l-4.205,-1.27c0,0 1.87,-0.717 2.439,-2.26l2.489,-6.732c0.349,-0.949 -0.611,-2.562 -0.611,-2.562l3.997,1.208l1.29,9.072l5.946,-6.886l4.074,1.231c0,0 -1.706,0.373 -2.023,1.766l-1.657,7.127c-0.386,1.62 0.877,3.118 0.877,3.118l-5.967,-1.803c0,0 2.004,-0.2 2.376,-1.432c0.091,-0.303 0.164,-0.612 0.231,-0.902l1.596,-6.856l-0.038,-0.011l-7.139,8.303l-0.455,-0.138l-1.491,-10.663Z" style="fill:#fff;fill-rule:nonzero;"/><path d="M234.868,92.686l-2.665,-3.417l-3.511,2.739l1.972,2.528c0.669,0.858 2.523,0.918 2.523,0.918l-3.105,2.422c0,0 0.479,-1.704 -0.459,-2.905l-1.789,-2.294l-2.809,2.191c-0.671,0.524 -0.714,0.758 -0.36,1.21l2.032,2.606c0.791,1.014 3.453,1.146 3.453,1.146l-2.595,1.724l-7.327,-9.393c0,0 2.416,1.102 3.181,0.505l6.225,-4.856c0.843,-0.657 0.567,-2.876 0.567,-2.876l6.706,8.597l-2.14,1.921c0,0 0.661,-2.048 0.101,-2.766Z" style="fill:#fff;fill-rule:nonzero;"/><path d="M157.563,68.89c0.105,1.004 2.375,1.981 2.375,1.981l-6.888,0.718c0,0 1.916,-1.274 1.797,-2.416l-0.81,-7.774c-0.099,-0.945 -2.225,-2.056 -2.225,-2.056c0.978,-0.162 1.722,-0.28 2.523,-0.423c1.094,-0.193 2.505,-0.4 3.214,-0.474c2.893,-0.302 4.507,-0.092 5.593,0.79c0.717,0.581 1.09,1.299 1.179,2.145c0.156,1.495 -0.803,2.789 -2.582,3.472c1.411,0.947 2.262,2.43 3.805,3.682c0.892,0.723 2.8,1.658 2.8,1.658c-0.431,0.065 -0.628,0.085 -1.219,0.147c-2.44,0.255 -3.481,0.005 -4.502,-0.823c-1.087,-0.882 -2.444,-2.83 -3.817,-3.781l-1.555,0.162l0.312,2.992Zm-0.326,-3.804l0.767,-0.08c2.382,-0.249 3.684,-1.12 3.464,-3.226c-0.218,-2.087 -1.889,-2.668 -3.799,-2.469l-1.023,0.106l0.591,5.669Z" style="fill:#fff;fill-rule:nonzero;"/><path d="M94.43,99.372c0.568,-0.907 1.243,-1.933 1.708,-2.694c0.522,-0.843 0.923,-1.48 1.483,-2.272c2.282,-3.234 3.759,-4.468 5.799,-4.82c1.462,-0.252 2.98,0.068 4.354,1.038c1.472,1.039 2.308,2.598 2.56,4.06c0.243,1.407 0.121,3.331 -2.219,6.645l-3.629,5.141c0,0 0.221,-2.097 -0.701,-2.747l-6.241,-4.405c-1.148,-0.811 -3.114,0.054 -3.114,0.054Zm10.817,2.04c1.083,0.764 1.342,0.705 2.221,-0.539c2.568,-3.638 0.74,-6.333 -1.184,-7.691c-1.342,-0.948 -2.885,-1.335 -4.126,-1.121c-1.352,0.233 -2.488,1.054 -3.652,2.703c-0.308,0.437 -0.543,0.804 -0.809,1.318l7.55,5.33Z" style="fill:#fff;fill-rule:nonzero;"/><path d="M95.825,116.201l1.539,1.553c0.673,0.671 2.536,-0.999 2.536,-0.999l-2.068,5.008c0,0 -0.286,-2.059 -1.208,-2.985l-8.583,-8.952l12.579,-0.637c1.255,-0.064 2.838,-1.053 2.838,-1.053l-2.536,6.143c0,0 -0.234,-2.413 -1.171,-2.353l-2.217,0.135l-1.709,4.14Zm-3.623,-3.812l3.077,3.106l1.373,-3.327l-4.45,0.221Z" style="fill:#fff;fill-rule:nonzero;"/><path d="M210.733,68.992c3.63,1.983 4.956,5.662 3.182,8.909c-1.689,3.092 -5.577,4.553 -9.727,2.285c-3.994,-2.183 -4.926,-6.007 -3.332,-8.925c1.879,-3.438 6.005,-4.386 9.877,-2.269Zm-5.738,10.665c2.414,1.319 4.681,-0.148 5.991,-2.544c1.528,-2.796 1.562,-6.16 -1.077,-7.602c-2.206,-1.205 -4.577,-0.291 -6.01,2.331c-1.813,3.317 -1.352,6.477 1.096,7.815Z" style="fill:#fff;fill-rule:nonzero;"/><path d="M211.088,89.311c-4.169,-3.414 -2.759,-2.917 -3.899,-6.523c-1.139,-3.606 -0.359,-8.718 -1.169,-9.29c-0.809,-0.572 1.809,-0.775 2.698,6.949c0.889,7.723 2.37,8.864 2.37,8.864Z" style="fill:#fff;fill-rule:nonzero;"/><path d="M107.532,245.469c-35.069,-20.711 -58.642,-58.903 -58.642,-102.496c0,-65.586 53.358,-118.944 118.944,-118.944c65.585,0 118.944,53.358 118.944,118.944c0,65.586 -53.359,118.944 -118.944,118.944c-21.704,0 -42.069,-5.843 -59.604,-16.039l-1.919,-1.041l-1.36,1.96l1.945,1.265c17.924,10.434 38.746,16.415 60.938,16.415c66.997,0 121.503,-54.507 121.503,-121.504c0,-66.997 -54.506,-121.503 -121.503,-121.503c-66.998,0 -121.503,54.506 -121.503,121.503c0,44.516 24.063,83.518 59.867,104.68l1.472,0.743l1.16,-2.079l-1.298,-0.848Z" style="fill:#fff;fill-rule:nonzero;"/><path d="M120.204,220.227c-25.828,-15.987 -43.134,-44.711 -43.134,-77.254c0,-42.141 29.043,-77.789 68.072,-87.888l0.703,-2.086c-40.487,9.896 -70.622,46.482 -70.622,89.974c0,33.257 17.621,62.476 44.016,78.811l1.412,0.766l0.842,-1.476l-1.289,-0.847Z" style="fill:#fff;fill-rule:nonzero;"/><path d="M120.096,222.308c13.949,8.424 30.287,13.276 47.738,13.276c51.065,0 92.611,-41.545 92.611,-92.611c0,-51.066 -41.546,-92.611 -92.611,-92.611c-5.92,0 -11.713,0.559 -17.328,1.626l-0.301,1.942c5.703,-1.129 11.598,-1.721 17.629,-1.721c49.975,0 90.764,40.789 90.764,90.764c0,49.975 -40.789,90.632 -90.764,90.632c-17.154,0 -33.211,-4.79 -46.901,-13.104l-1.394,-0.795l-1.402,1.236l1.959,1.366Z" style="fill:#fff;fill-rule:nonzero;"/><path d="M166.895,43.311c-0.828,-0.04 -1.661,-0.273 -2.428,-0.717c-0.73,-0.423 -1.323,-0.99 -1.764,-1.645" style="fill:#fff;fill-rule:nonzero;"/><path d="M168.247,35.894l3.106,-2.998c0.647,0.52 1.184,1.198 1.543,2.009c0.342,0.77 0.489,1.578 0.461,2.367l-4.303,0.354l3.857,2.043c-0.294,0.777 -0.773,1.496 -1.433,2.089c-0.626,0.564 -1.35,0.952 -2.109,1.17l-1.712,-3.999l-0.762,4.382c-0.828,-0.04 -1.661,-0.273 -2.428,-0.717c-0.73,-0.423 -1.323,-0.99 -1.764,-1.645l3.283,-2.947l-4.191,0.666c-0.218,-0.8 -0.254,-1.664 -0.068,-2.531c0.175,-0.825 0.532,-1.564 1.019,-2.186l3.605,2.176l-1.9,-3.621c0.694,-0.455 1.505,-0.756 2.387,-0.848c0.839,-0.087 1.652,0.024 2.394,0.294l-0.985,3.942Z" style="fill:#fff;fill-rule:nonzero;"/><path d="M212.421,117.867c-0.791,-0.017 -1.889,-0.724 -2.194,-1.7c-0.306,-0.975 0.579,-1.607 0.579,-1.607c0.03,0.039 0.065,0.075 0.1,0.109c0.064,0.072 0.109,0.125 0.109,0.125l0.005,-0.032c0.183,0.129 0.439,0.023 0.688,0.012c0.561,-0.025 0.67,-0.24 0.647,-0.754c-0.022,-0.515 -0.464,-0.976 -1.004,-0.823c-0.479,0.136 -1.232,0.245 -1.646,-0.037c-0.153,-0.104 -0.181,-0.572 -0.06,-0.963c0.039,-0.23 0.254,-0.712 0.249,-0.833c-0.016,-0.354 -0.44,-0.606 -0.827,-0.589c-0.386,0.017 -0.744,0.33 -0.728,0.683c0.022,0.499 0.34,0.699 0.556,0.946c0.333,0.379 0.215,0.676 0.096,0.867c-0.087,0.141 -1.045,0.466 -1.045,0.466l0.02,0.039c-0.073,-0.011 -0.148,-0.018 -0.225,-0.014c-0.561,0.025 -0.951,0.293 -0.929,0.807c0.023,0.515 0.326,0.875 0.887,0.85c0.363,-0.016 0.671,-0.205 0.84,-0.474c0,0 0.829,0.633 0.717,1.438c-0.111,0.794 -0.171,1.438 -1.667,1.905c-1.225,0.381 -1.981,-0.351 -1.981,-0.351c0,0 -0.36,1.063 -1.464,0.937c-1.687,-0.192 -1.991,-2.227 -1.991,-2.227c0,0 0.698,0.026 1.05,-0.88c0.296,-0.766 -0.211,-1.238 -1.039,-1.35c-0.5,-0.067 -1.135,0.707 -1.832,0.408c-0.697,-0.299 0.362,-1.664 -0.549,-2.183c-0.84,-0.477 -1.325,0.614 -1.325,0.614c0,0 1.287,1.33 2.966,3.752c1.344,1.938 3.225,4.243 3.225,4.243l-0.957,0.642c0,0 -1.3,-2.022 -3.358,-4.8c-1.754,-2.368 -3.122,-3.844 -3.122,-3.844c0,0 -0.053,-0.198 0.437,-0.701c0.621,-0.637 1.569,-1.519 2.708,-1.005c1.139,0.515 0.563,2.301 0.563,2.301c0,0 0.615,-0.677 1.634,-0.54c1.105,0.149 2.08,1.17 1.904,2.137c-0.25,1.376 -1.097,1.718 -1.097,1.718c0,0 -0.128,0.535 0.924,0.427c0.639,-0.066 1.066,-1.013 1.066,-1.013c0.048,-0.016 1.587,1.414 2.421,0.326c0.08,-0.103 0.128,-0.232 0.192,-0.351c-0.13,0.03 -0.264,0.049 -0.402,0.05c-1.054,0.013 -1.921,-0.85 -1.936,-1.926c-0.015,-1.076 0.828,-1.959 1.882,-1.972c0.395,-0.004 0.112,-0.027 0.653,0.074c-0.423,-0.23 -0.956,-0.685 -0.967,-1.456c-0.012,-0.903 0.95,-1.822 1.834,-1.833c0.884,-0.01 1.999,0.804 2.012,1.705c0.008,0.568 -0.304,1.017 -0.541,1.274c0.237,-0.257 0.598,-0.399 1.151,-0.405c1.054,-0.013 1.921,0.85 1.936,1.926c0.015,1.076 -0.828,1.959 -1.881,1.972c-0.086,0.001 -0.168,-0.013 -0.251,-0.023c0.015,0.015 0.031,0.032 0.044,0.044c0.372,0.321 0.841,0.46 1.246,0.534c1.29,0.235 1.44,-0.781 1.44,-0.781c0,0 0.625,0.588 1.235,0.387c1.005,-0.33 0.796,-0.949 0.796,-0.949c0,0 -0.929,0.136 -1.718,-1.018c-0.556,-0.813 -0.503,-1.724 0.445,-2.31c0.875,-0.541 2.053,-0.221 2.053,-0.221c0,0 -1.096,-1.284 -0.265,-2.218c0.83,-0.934 2.026,-0.513 2.854,-0.183c0.651,0.259 1.062,0.493 1.062,0.493c0,0 -0.869,1.465 -1.506,4.343c-0.826,3.731 -1.315,5.751 -1.315,5.751l-1.021,-0.279c0,0 0.576,-3.239 1.162,-5.623c0.653,-2.658 1.265,-3.55 1.265,-3.55c0,0 -1.021,-0.909 -1.593,-0.13c-0.621,0.845 0.808,1.495 0.293,2.052c-0.514,0.557 -1.437,-0.004 -1.866,0.261c-0.711,0.44 -0.647,0.721 -0.232,1.306c0.428,0.604 1.276,0.367 1.276,0.367c0,0 0.661,2.054 -0.801,2.918c-0.956,0.564 -1.845,-0.153 -1.845,-0.153c0,0 -0.299,0.929 -2.042,0.892Z" style="fill:#fff;fill-rule:nonzero;"/><path d="M203.458,121.453c-0.117,-1.025 3.015,-2.215 6.997,-2.659c3.981,-0.443 7.304,0.027 7.421,1.052c0.118,1.025 -3.015,2.215 -6.997,2.659c-3.981,0.443 -7.304,-0.027 -7.421,-1.052Zm6.685,0.061c2.422,-0.255 4.042,-0.702 3.932,-1.349c-0.07,-0.413 -2.055,-0.545 -4.478,-0.291c-2.422,0.255 -4.346,0.798 -4.295,1.213c0.051,0.416 2.418,0.682 4.841,0.427Z" style="fill:#fff;fill-rule:nonzero;"/><path d="M237.225,114.277c-0.792,-0.017 -1.89,-0.724 -2.196,-1.699c-0.305,-0.976 0.58,-1.608 0.58,-1.608c0.03,0.039 0.064,0.075 0.1,0.109c0.064,0.072 0.108,0.125 0.108,0.125l0.006,-0.032c0.183,0.129 0.439,0.023 0.688,0.012c0.562,-0.024 0.67,-0.24 0.647,-0.754c-0.022,-0.515 -0.464,-0.976 -1.005,-0.823c-0.479,0.136 -1.231,0.246 -1.645,-0.037c-0.153,-0.104 -0.181,-0.572 -0.06,-0.963c0.038,-0.23 0.254,-0.712 0.249,-0.833c-0.016,-0.354 -0.441,-0.606 -0.826,-0.589c-0.387,0.017 -0.745,0.33 -0.729,0.684c0.022,0.498 0.34,0.698 0.556,0.945c0.333,0.379 0.215,0.676 0.096,0.868c-0.087,0.14 -1.045,0.465 -1.045,0.465l0.02,0.039c-0.073,-0.011 -0.148,-0.018 -0.225,-0.014c-0.562,0.025 -0.951,0.293 -0.928,0.807c0.022,0.515 0.325,0.875 0.886,0.851c0.363,-0.017 0.671,-0.206 0.839,-0.475c0,0 0.83,0.633 0.718,1.438c-0.111,0.794 -0.17,1.438 -1.667,1.905c-1.225,0.382 -1.981,-0.351 -1.981,-0.351c0,0 -0.36,1.063 -1.464,0.937c-1.688,-0.192 -1.991,-2.227 -1.991,-2.227c0,0 0.698,0.026 1.05,-0.88c0.297,-0.766 -0.211,-1.238 -1.04,-1.349c-0.499,-0.068 -1.134,0.706 -1.831,0.407c-0.697,-0.299 0.362,-1.664 -0.55,-2.183c-0.839,-0.477 -1.324,0.614 -1.324,0.614c0,0 1.286,1.33 2.966,3.752c1.343,1.938 3.225,4.243 3.225,4.243l-0.957,0.642c0,0 -1.301,-2.022 -3.358,-4.8c-1.755,-2.368 -3.122,-3.843 -3.122,-3.843c0,0 -0.053,-0.199 0.437,-0.702c0.621,-0.637 1.569,-1.519 2.708,-1.004c1.139,0.514 0.563,2.3 0.563,2.3c0,0 0.615,-0.677 1.634,-0.54c1.105,0.149 2.08,1.17 1.904,2.138c-0.25,1.375 -1.097,1.718 -1.097,1.718c0,0 -0.128,0.534 0.923,0.426c0.64,-0.065 1.067,-1.013 1.067,-1.013c0.048,-0.016 1.587,1.414 2.421,0.327c0.08,-0.104 0.128,-0.233 0.192,-0.352c-0.13,0.03 -0.264,0.049 -0.402,0.05c-1.054,0.013 -1.921,-0.85 -1.936,-1.926c-0.015,-1.076 0.827,-1.959 1.882,-1.971c0.395,-0.005 0.112,-0.028 0.653,0.073c-0.423,-0.229 -0.956,-0.685 -0.967,-1.456c-0.013,-0.902 0.95,-1.823 1.834,-1.833c0.883,-0.01 1.999,0.804 2.012,1.706c0.008,0.567 -0.304,1.016 -0.541,1.274c0.237,-0.258 0.598,-0.399 1.151,-0.406c1.054,-0.012 1.921,0.85 1.936,1.926c0.015,1.077 -0.828,1.959 -1.882,1.972c-0.086,0.001 -0.167,-0.013 -0.25,-0.023c0.015,0.015 0.031,0.033 0.044,0.044c0.372,0.321 0.841,0.461 1.245,0.534c1.291,0.235 1.441,-0.781 1.441,-0.781c0,0 0.624,0.588 1.235,0.387c1.005,-0.33 0.796,-0.948 0.796,-0.948c0,0 -0.93,0.135 -1.719,-1.019c-0.555,-0.812 -0.502,-1.724 0.446,-2.31c0.875,-0.541 2.052,-0.221 2.052,-0.221c0,0 -1.094,-1.284 -0.264,-2.218c0.83,-0.934 2.026,-0.512 2.854,-0.183c0.652,0.259 1.062,0.494 1.062,0.494c0,0 -0.869,1.464 -1.506,4.342c-0.826,3.731 -1.315,5.751 -1.315,5.751l-1.022,-0.278c0,0 0.578,-3.24 1.163,-5.624c0.653,-2.658 1.266,-3.549 1.266,-3.549c0,0 -1.022,-0.91 -1.594,-0.131c-0.621,0.845 0.807,1.495 0.293,2.052c-0.514,0.557 -1.438,-0.004 -1.866,0.261c-0.711,0.44 -0.647,0.721 -0.232,1.306c0.427,0.604 1.276,0.367 1.276,0.367c0,0 0.662,2.054 -0.801,2.918c-0.957,0.565 -1.844,-0.153 -1.844,-0.153c0,0 -0.3,0.929 -2.042,0.892Z" style="fill:#fff;fill-rule:nonzero;"/><path d="M228.261,117.863c-0.117,-1.025 3.015,-2.215 6.996,-2.659c3.982,-0.443 7.305,0.027 7.422,1.052c0.117,1.025 -3.015,2.215 -6.996,2.659c-3.982,0.443 -7.305,-0.027 -7.422,-1.052Zm6.685,0.061c2.423,-0.254 4.042,-0.702 3.932,-1.348c-0.07,-0.413 -2.055,-0.546 -4.478,-0.291c-2.422,0.255 -4.345,0.797 -4.295,1.213c0.051,0.415 2.418,0.681 4.841,0.426Z" style="fill:#fff;fill-rule:nonzero;"/><path d="M226.967,131.208c-0.791,-0.017 -1.889,-0.724 -2.195,-1.7c-0.305,-0.976 0.581,-1.608 0.581,-1.608c0.029,0.039 0.063,0.075 0.099,0.11c0.065,0.072 0.109,0.125 0.109,0.125l0.005,-0.032c0.183,0.128 0.438,0.022 0.688,0.012c0.561,-0.025 0.67,-0.241 0.647,-0.755c-0.022,-0.515 -0.464,-0.976 -1.005,-0.822c-0.479,0.135 -1.231,0.245 -1.646,-0.038c-0.152,-0.104 -0.18,-0.571 -0.059,-0.962c0.038,-0.231 0.254,-0.712 0.249,-0.833c-0.016,-0.354 -0.441,-0.606 -0.827,-0.59c-0.386,0.017 -0.744,0.33 -0.728,0.684c0.021,0.499 0.34,0.699 0.556,0.945c0.333,0.379 0.215,0.676 0.096,0.868c-0.087,0.14 -1.045,0.466 -1.045,0.466l0.02,0.039c-0.073,-0.012 -0.148,-0.018 -0.225,-0.014c-0.561,0.024 -0.951,0.292 -0.929,0.807c0.023,0.514 0.326,0.875 0.887,0.85c0.363,-0.016 0.671,-0.205 0.839,-0.474c0,0 0.83,0.632 0.718,1.437c-0.111,0.795 -0.171,1.439 -1.667,1.905c-1.225,0.382 -1.981,-0.35 -1.981,-0.35c0,0 -0.361,1.063 -1.464,0.937c-1.688,-0.193 -1.991,-2.227 -1.991,-2.227c0,0 0.698,0.026 1.049,-0.881c0.298,-0.765 -0.21,-1.237 -1.039,-1.349c-0.499,-0.068 -1.134,0.707 -1.831,0.407c-0.697,-0.298 0.362,-1.664 -0.549,-2.182c-0.84,-0.478 -1.325,0.614 -1.325,0.614c0,0 1.286,1.33 2.966,3.752c1.343,1.938 3.225,4.243 3.225,4.243l-0.957,0.641c0,0 -1.301,-2.022 -3.358,-4.799c-1.755,-2.368 -3.122,-3.844 -3.122,-3.844c0,0 -0.053,-0.199 0.437,-0.701c0.621,-0.638 1.569,-1.519 2.708,-1.005c1.139,0.515 0.563,2.301 0.563,2.301c0,0 0.615,-0.677 1.634,-0.54c1.105,0.149 2.08,1.169 1.904,2.137c-0.25,1.375 -1.097,1.718 -1.097,1.718c0,0 -0.128,0.535 0.924,0.427c0.639,-0.066 1.066,-1.013 1.066,-1.013c0.048,-0.017 1.587,1.414 2.421,0.326c0.079,-0.104 0.128,-0.233 0.192,-0.351c-0.13,0.03 -0.264,0.048 -0.402,0.05c-1.054,0.012 -1.921,-0.85 -1.936,-1.927c-0.015,-1.076 0.827,-1.959 1.882,-1.971c0.395,-0.004 0.112,-0.027 0.653,0.073c-0.423,-0.229 -0.956,-0.684 -0.967,-1.456c-0.012,-0.902 0.95,-1.822 1.834,-1.832c0.883,-0.011 1.999,0.803 2.012,1.705c0.008,0.568 -0.304,1.016 -0.541,1.274c0.237,-0.258 0.598,-0.399 1.151,-0.406c1.054,-0.012 1.921,0.85 1.936,1.927c0.015,1.076 -0.828,1.959 -1.882,1.971c-0.085,0.001 -0.167,-0.012 -0.25,-0.023c0.015,0.016 0.031,0.033 0.044,0.044c0.371,0.322 0.841,0.461 1.246,0.535c1.29,0.234 1.44,-0.781 1.44,-0.781c0,0 0.624,0.587 1.235,0.386c1.005,-0.329 0.796,-0.948 0.796,-0.948c0,0 -0.929,0.135 -1.719,-1.019c-0.555,-0.812 -0.502,-1.723 0.446,-2.309c0.875,-0.541 2.052,-0.222 2.052,-0.222c0,0 -1.095,-1.284 -0.264,-2.217c0.83,-0.934 2.026,-0.513 2.854,-0.184c0.651,0.259 1.062,0.494 1.062,0.494c0,0 -0.869,1.465 -1.506,4.342c-0.826,3.731 -1.315,5.752 -1.315,5.752l-1.021,-0.279c0,0 0.577,-3.24 1.162,-5.624c0.653,-2.658 1.265,-3.549 1.265,-3.549c0,0 -1.021,-0.909 -1.593,-0.131c-0.621,0.846 0.807,1.496 0.293,2.053c-0.515,0.557 -1.437,-0.004 -1.866,0.261c-0.711,0.439 -0.647,0.721 -0.232,1.306c0.428,0.604 1.276,0.366 1.276,0.366c0,0 0.661,2.054 -0.801,2.918c-0.957,0.565 -1.845,-0.152 -1.845,-0.152c0,0 -0.299,0.929 -2.042,0.892Z" style="fill:#fff;fill-rule:nonzero;"/><path d="M218.004,134.793c-0.117,-1.024 3.015,-2.214 6.996,-2.658c3.982,-0.444 7.305,0.027 7.422,1.051c0.118,1.025 -3.015,2.215 -6.997,2.659c-3.981,0.444 -7.304,-0.027 -7.421,-1.052Zm6.685,0.062c2.422,-0.255 4.042,-0.703 3.932,-1.349c-0.07,-0.413 -2.056,-0.546 -4.478,-0.291c-2.422,0.255 -4.346,0.798 -4.295,1.213c0.051,0.416 2.419,0.681 4.841,0.427Z" style="fill:#fff;fill-rule:nonzero;"/><path d="M176.022,109.501c-3.23,3.584 -1.111,8.731 -1.85,13.28c-1.277,3.704 -5.171,6.044 -6.332,9.801c-0.285,2.187 -0.548,5.233 0.986,6.854c0.107,-0.289 -0.184,-0.453 -0.247,-0.681c-0.635,-4.455 0.753,-7.634 4.626,-11.419c5.904,-6.667 -1.002,-12.063 4.597,-17.086l-1.78,-0.749Z" style="fill:#fff;fill-rule:nonzero;"/><path d="M189.785,151.573c2.693,-0.072 4.465,-0.417 7.122,-1.109c2.607,-0.787 4.707,-1.522 7.121,-2.361c5.213,-1.61 8.131,-2.849 13.575,-2.937l0.659,0.001c1.549,0.016 2.931,0.266 4.319,0.687c0.693,0.211 1.609,0.856 2.336,1.267c3.474,3.012 3.71,4.705 8.092,7.417c1.969,0.75 3.833,2.837 5.392,3.254c-0.648,-0.623 -1.333,-0.922 -2.723,-2.356c-2.065,-1.812 -5.602,-6.415 -9.444,-9.294c-2.096,-1.205 -4.352,-1.948 -6.823,-2.168c-4.78,-0.79 -10.301,0.59 -14.385,2.247c-4.382,1.433 -5.928,1.714 -10.563,2.473c-1.7,0.351 -2.953,0.152 -4.397,-0.239c-0.59,-4.72 -2.276,-3.793 -1.659,-9.366c1.827,-6.648 1.103,-12.356 -1.158,-17.571c0.525,-1.849 0.682,-4.547 -0.849,-6.055c-1.296,-1.284 -4.801,-1.591 -5.485,0.721c0.393,1.823 2.786,0.713 3.955,1.542c1.385,0.364 1.276,2.03 1.052,2.929c-0.329,2.703 -3.456,4.094 -5.507,4.608c0.787,1.573 3.919,0.548 4.931,-0.38c1.156,2.492 1.771,2.822 2.192,5.9c0.258,5.382 -1.293,5.142 -3.316,8.597c-0.927,1.854 -0.856,4.227 0.562,7.923c-0.393,-5.619 0.337,-5.956 1.91,-8.485c0,0 -0.561,2.304 -0.505,4.495c0.067,2.612 1.433,3.372 1.531,5.718c-0.461,2.076 -0.464,2.767 -1.812,4.453c-2.456,3.235 -6.799,2.866 -8.541,11.125c3.203,-4.719 3.933,-5.956 6.911,-7.641c3.99,-1.686 4.603,-3.008 5.507,-5.395Z" style="fill:#fff;fill-rule:nonzero;"/><path d="M159.513,124.308c1.461,1.05 1.786,2.318 3.021,3.489c-0.579,-0.153 -4.08,-2.747 -5.973,-2.005c-2.688,0.244 -6.263,2.662 -8.624,0.145c-1.598,-0.681 -2.687,-3.412 -2.96,-5.067c1.501,2.54 4.149,5.107 7.572,4.442c1.794,-0.387 2.773,-0.628 4.323,-0.555c0.802,-0.022 2.022,0.084 3.008,0.971c-1.154,-1.14 -2.587,-1.982 -4.357,-1.982c-3.961,0.084 -8.091,1.854 -10.546,-2.876c2.286,1.78 7.009,1.961 10.942,1.899c1.319,0.158 2.692,0.58 3.594,1.539Zm-6.08,-6.702c-0.27,0.637 -0.994,1.459 -0.518,2.078l1.109,-1.406c-0.235,-0.223 -0.469,-0.389 -0.591,-0.672Zm2.507,1.595c0.413,0.448 0.6,0.959 0.728,1.471c0.518,0.101 0.667,-0.763 1.067,-0.831l-1.795,-0.64Zm0.728,3.068c-0.375,-1.137 -0.706,-2.266 -1.917,-2.52c-1.222,-0.656 -2.344,2.413 -2.753,-0.041c-0.497,-1.42 1.165,-2.48 -0.408,-3.661c-1.293,-1.966 0.618,-2.416 0.075,-4.529c-0.099,-1.546 -0.356,-3.562 1.793,-3.66c3.248,-0.775 6.567,-0.8 9.651,0.168c0.881,-0.786 1.149,-1.208 1.286,-1.739c0,0 1.453,-0.171 2.408,0.222c0.956,0.394 2.039,0.994 2.039,0.994c-0.931,0.118 -2.531,0.285 -2.418,1.577c0.618,1.517 2.059,-0.609 5.923,1.897c0.295,0.326 0.857,0.528 0.983,1.498c-1.826,-0.82 -2.793,-0.531 -4.293,-1.208c-1.205,-0.398 -1.559,-0.431 -2.782,-0.221c-0.463,0.085 -2.361,1.452 -2.29,0.469c0,0 0,-0.492 -0.266,-1.508c-0.296,-0.927 -0.718,-0.834 -1.545,-1.111c-3.934,-0.996 -5.957,-0.659 -8.148,-0.28c-0.843,0.211 -1.234,1.439 -0.864,2.403c0.747,1.491 1.018,1.248 1.819,1.208c0.675,-0.394 1.057,-1.386 2.201,-1.474c0.848,0.055 1.548,0.016 1.802,0.927l0.014,0.515c-0.305,-0.679 -1.221,-0.376 -1.685,-0.165c-0.211,0.211 -0.379,0.421 -0.211,0.674c0.301,0.508 0.655,0.27 1.117,0.372c-0.407,0.708 -2.298,0.925 -3.534,0.783c-0.448,-0.059 -0.489,0.607 -0.715,0.727c-0.443,0.586 -0.167,1.118 0.022,1.744c1.888,2.274 5.085,2.447 7.535,4.044c0.64,0.327 1.163,1.428 1.349,1.938c-1.161,-0.542 -1.442,1.258 -1.433,1.602l0.516,-0.315c0.383,-0.135 1.37,-0.627 1.423,-0.696c0.647,0.613 0.421,1.601 0.596,2.391c0.268,-0.695 0.106,-1.436 0.499,-2.279c0.843,2.922 2.515,8.106 -1.755,14.792c-2.192,4.495 -1.925,5.43 -1.686,11.519c-2.978,-6.293 -0.725,-9.46 -0.098,-13.354c0.041,-0.343 0.041,-0.848 -0.422,-1.185c0.146,1.666 -0.211,2.739 -1.475,4.467c-2.054,2.52 -2.36,5.9 -1.222,8.386c0.969,2.81 1.742,3.922 1.419,6.856c-0.45,2.809 -1.18,4.495 -0.169,8.203c-2.276,-4.467 -1.564,-5.956 -1.452,-8.55c0.094,-2.189 -0.382,-4.353 -1.687,-6.05l0.779,0.665c-0.758,5.17 -7.838,5.675 -5.226,12.671c0.899,1.573 2.922,4.635 3.035,6.096c-1.501,-2.54 -3.319,-2.72 -4.596,-5.438c-3.401,-0.655 -6.101,1.819 -9.396,2.84c-1.888,0.538 -3.835,1.433 -7.037,-1.349c5.984,2.191 10.12,-1.724 13.922,-3.202c2.158,-0.965 1.273,-2.524 1.559,-3.883c0.694,-4.089 4.556,-3.921 5.713,-7.851c0.087,-3.312 -0.418,-5.335 0.593,-7.526c1.012,-2.191 2.597,-1.588 2.816,-4.376c0.945,-3.236 -3.839,-3.551 -2.902,-7.547c0.561,0.749 1.624,1.233 2.558,1.688c1.641,0.799 3.448,2.133 4.594,3.422c-0.131,-0.627 -1.379,-2.592 -2.023,-3.09l-1.629,-1.237c0.155,-0.634 0.914,-0.998 1.534,-1.435c-0.181,1.84 2.078,2.697 2.968,3.82c0.62,-2.539 -0.083,-5.273 -0.717,-7.549c0,0 -0.863,-0.117 -1.369,0.613c-0.731,-1.742 -0.233,-2.634 0.019,-3.902c0.021,-0.674 -0.581,-0.256 -0.918,-0.2c-0.618,0.337 -0.85,0.533 -0.85,0.533l-0.901,-1.524c-0.737,0.307 -1.559,1.18 -1.768,1.931Z" style="fill:#fff;fill-rule:nonzero;"/><path d="M184.158,119.537c0.194,0.797 -0.185,1.668 -0.625,2.367c-0.274,0.466 -0.788,0.537 -1.184,0.72c0.039,-0.689 1.508,-1.474 0.624,-2.368l-1.58,-1.219c0.613,-0.647 2.389,-0.694 2.765,0.5Z" style="fill:#fff;fill-rule:nonzero;"/><path d="M158.282,129.602c-0.4,0.049 -0.744,0.049 -1.124,-0.218c-1.451,-0.65 0.168,-1.247 0.262,-1.995c0.53,0.502 0.443,1.536 0.862,2.213Z" style="fill:#fff;fill-rule:nonzero;"/><path d="M164.238,145.732c0.079,2.918 -0.198,4.998 -0.772,6.703c-0.6,1.774 -0.746,2.25 -2.102,4.441c1.128,-2.716 1.508,-4.741 1.887,-7.863c0.287,-2.762 0.187,-6.78 1.3,-9.021l0.948,-2.698c-1.146,4.546 -1.147,6.558 -1.261,8.438Z" style="fill:#fff;fill-rule:nonzero;"/><path d="M128.749,176.227c0.716,-0.885 1.159,-0.657 1.559,-0.801c0.5,0.502 0.347,1.088 1.121,1.455c1.126,0.551 2.702,-0.565 3.49,-1.102c0,0 2.16,1.417 3.396,1.417c1.236,0 1.686,-1.236 2.809,-1.236c1.124,0 1.798,1.405 1.798,1.405c0,0 1.129,-0.104 7.08,-1.068c5.9,-0.955 4.496,2.866 4.496,2.866c0,0 2.232,0.482 4.667,-2.14c1.798,-1.936 3.649,-4.603 4.155,-7.188c0.505,-2.585 0.617,-12.362 0.617,-12.362c0,0 -1.629,4.383 -1.854,6.912c-0.225,2.528 -0.674,5.562 -2.865,8.765c-0.483,0.706 -2.36,1.517 -2.36,1.517c0.185,0.033 -0.646,-1.473 -1.349,-2.023c-1.025,-0.8 -1.91,-0.898 -1.91,-0.898c0,0 -4.383,2.978 -6.013,2.865c-1.629,-0.112 0.113,-2.865 0.113,-2.865c0,0 -4.945,1.854 -7.473,2.584c-2.529,0.731 -3.007,-0.547 -3.007,-0.547c-1.249,0.434 -3.851,1.551 -5.394,1.011c-1.411,-0.801 -2.065,-1.559 -2.697,-0.716l-1.433,1.559c-1.39,-3.203 2.323,-4.379 3.401,-5.499l-2.367,-0.263c-0.982,-0.361 -1.428,-1.379 -1.242,-2.155c-1.318,0.032 -2.547,0.706 -3.584,0.86c0.202,-2.641 3.427,-1.499 4.697,-3.203c0.333,-0.458 1.235,-0.856 2.234,-0.291c0,0 -2.936,-1.868 -2.717,-2.682c0.758,-2.823 5.515,1.434 6.631,2.05c-0.352,-0.533 -0.773,-0.786 -1.195,-1.46c-1.992,-4.317 -7.122,-3.54 -8.934,0.084c0.244,0.424 1.896,-0.913 2.065,0.211c0.337,0.562 0.779,1.153 0.922,1.341c-1.083,0.618 -2.18,0.691 -2.987,1.061c-3.077,1.096 -3.161,5.183 -3.161,5.183c0,0 3.111,-0.574 4.126,-0.982c0.136,-0.043 0.278,-0.092 0.425,-0.155c0.464,1.601 1.939,0.506 0.211,3.54c-0.93,1.61 0.801,4.594 0.801,4.594c0,0 1.054,-0.464 1.728,-1.644Z" style="fill:#fff;fill-rule:nonzero;"/><path d="M170.048,153.386c-0.758,1.222 -3.502,6.25 -3.793,10.788c-0.912,-4.104 0.085,-7.417 3.329,-12.938c4.636,-6.827 2.198,-13.478 2.487,-15.55c3.624,12.474 -0.652,15.37 -2.023,17.7Z" style="fill:#fff;fill-rule:nonzero;"/><path d="M155.172,160.508c0.169,0.927 0.674,2.303 1.601,4.13c0.666,1.164 1.517,3.287 0.675,7.501c-0.928,-5.816 -1.517,-5.9 -2.503,-8.015c-0.819,-1.584 -1.536,-4.201 -1.037,-6.398c0.111,-0.666 1.066,-2.391 1.601,-2.781c-0.706,1.235 -0.854,3.887 -0.337,5.563Z" style="fill:#fff;fill-rule:nonzero;"/><path d="M168.025,168.304c-1.601,2.36 -2.823,3.877 -3.75,4.678c0.843,-6.616 4.973,-7.586 6.743,-15.677c0,3.076 -1.383,9.006 -2.993,10.999Z" style="fill:#fff;fill-rule:nonzero;"/><path d="M195.755,177.533c0.873,0.235 1.763,0.474 2.402,0.801c-1.042,-0.374 -3.267,-0.746 -3.986,-0.798c-0.536,0.05 -0.931,0.025 -1.298,-0.038c-3.044,-0.205 -6.477,-1.041 -8.819,-0.189c-3.827,1.606 -7.994,4.737 -8.75,6.894c-2.029,4.276 -7.082,0.733 -10.453,4.779c-0.886,-0.951 0.393,-2.473 2.29,-3.652c1.414,-0.726 4.924,0.324 6.259,-1.284c0.796,-0.842 -1.053,-2.833 -3.371,-1.873c-3.021,1.171 -3.044,2.716 -4.785,3.719c0.115,-2.125 2.135,-4.889 5.011,-5.152c1.538,-0.385 2.995,0.493 4.706,0.161c1.803,-1.194 2.824,-1.786 5.37,-3.073c1.554,-0.83 2.807,-1.068 4.72,-1.349c3.774,-0.387 7.138,0.633 10.704,1.054Z" style="fill:#fff;fill-rule:nonzero;"/><path d="M159.619,130.273c0,0 -0.345,-0.038 -1.155,-0.303c-0.894,-0.293 -1.931,-0.761 -2.076,-0.805c-0.433,-0.131 -0.675,-0.22 -0.675,-0.22c0,0 0.183,-0.292 0.47,-0.3c0.287,-0.007 1.392,0.25 2.36,0.702c0.968,0.452 1.456,0.869 1.456,0.869l-0.38,0.057Z" style="fill:#fff;fill-rule:nonzero;"/><path d="M185.416,112.901c0,0 -0.112,0.393 0.169,1.124c0.281,0.73 0.505,1.292 0.505,1.292c0,0 -3.596,0.112 -3.315,-0.393c0.281,-0.506 0.562,-0.956 0.393,-1.293c-0.168,-0.337 -0.617,-0.955 -0.617,-0.955l2.865,0.225Z" style="fill:#fff;fill-rule:nonzero;"/><path d="M164.457,123.015c-0.407,-1.176 -0.73,-1.854 -3.146,-3.146c-2.417,-1.293 -4.383,-1.686 -5.226,-2.023c-0.843,-0.338 -2.191,-0.731 -2.023,-0.618c0.169,0.112 4.832,2.753 5.731,3.146c0.9,0.394 2.192,0.899 2.642,1.349c0.449,0.449 0.562,0.449 0.786,1.067c0.225,0.618 0,1.405 0.394,2.191c0.393,0.788 0.73,0.788 0.73,0.788c0,0 0.618,-1.293 0.112,-2.754Z" style="fill:#fff;fill-rule:nonzero;"/><path d="M158.041,114.465c1.35,0 2.049,0.101 3.069,0.446c1.02,0.344 1.379,1.946 2.082,2.832c0,0 -2.482,-2.669 -4.475,-2.585c-0.336,0.014 -1.323,-0.694 -0.676,-0.693Z" style="fill:#fff;fill-rule:nonzero;"/><path d="M156.806,115.918c0.732,-0.179 1.261,0.038 1.902,0.26c0.642,0.221 0.97,0.773 1.577,1.596l-0.589,-0.281c0,0 0.126,0.004 -0.722,-0.44c-0.964,-0.505 -1.266,-0.446 -1.645,-0.646c-0.379,-0.2 -0.874,-0.403 -0.523,-0.489Z" style="fill:#fff;fill-rule:nonzero;"/><path d="M178.954,112.789c0,0 -1.601,1.432 -1.769,3.961c-0.169,2.528 0.421,5.562 0.842,8.428c0.422,2.866 0.084,4.973 -1.095,6.996c-0.9,1.543 -1.686,3.708 -1.602,5.984c0.103,2.785 2.206,5.493 2.206,5.493c0,0 -1.799,-3.512 -1.124,-6.799c0.674,-3.288 2.613,-5.226 2.865,-7.586c0.253,-2.36 -0.105,-4.669 -0.744,-7.459c-0.927,-4.046 -0.927,-6.659 0.421,-9.018Z" style="fill:#fff;fill-rule:nonzero;"/><path d="M175.962,153.821c0,0 1.798,-2.865 1.854,-5.45c0.057,-2.585 -1.629,-5.17 -2.135,-7.867c-0.505,-2.697 -0.618,-3.147 -0.056,-5.113c0.562,-1.967 2.248,-2.978 2.248,-2.978c0,0 -1.349,2.585 -1.405,4.214c-0.056,1.629 -0.226,2.607 0.786,5.675c1.013,3.068 2.079,6.069 1.349,8.26c-0.73,2.191 -1.742,3.372 -2.472,4.327c-0.731,0.955 -1.18,1.011 -0.169,-1.068Z" style="fill:#fff;fill-rule:nonzero;"/><path d="M171.05,173.475c-0.378,0.277 -0.831,0.579 -1.381,0.912c-0.463,0.28 -1.18,0.407 -1.18,0.407c0,0 0.66,-0.773 2.248,-2.992c2.528,-3.765 2.388,-7.71 3.259,-11.632c0.714,-2.878 3.034,-6.236 3.877,-7.754c0.843,-1.517 0.309,-6.405 0.309,-6.405c-0.169,8.259 -4.552,7.923 -5.647,14.441c-0.308,3.636 -1.574,7.473 -4.51,11.097c-2.233,3.076 -6.265,6.335 -10.268,7.894c4.607,0.9 7.754,-0.393 11.8,-0.561c0.955,0 2.809,0.056 4.045,0.337c0.843,0.393 1.124,-0.618 3.597,-1.91c1.798,-0.9 3.124,-1.489 4.722,-1.983c2.18,-0.531 3.92,-0.987 5.532,-0.743c-0.312,-0.176 6.539,-0.286 5.549,-0.941c-0.385,-1.538 -2.815,-0.174 -2.093,-1.054c-2.473,1.181 -2.908,0.309 -5.858,0.899c0,0 -2.362,0.282 -4.214,0.253c0,0 -1.231,-0.047 -2.065,-0.421c-1.63,-0.731 -1.461,-2.248 -1.461,-2.248c0,-0.843 -0.002,-1.383 0.112,-2.472c0.113,-1.068 -0.211,-2.908 -0.211,-2.908c0,0 -2.486,5.605 -6.162,7.784Z" style="fill:#fff;fill-rule:nonzero;"/><path d="M226.056,155.872c0,0 -3.54,-4.13 -7.333,-5.057c-3.793,-0.927 -10.873,0.168 -15.172,2.36c-4.298,2.191 -5.984,5.31 -8.26,9.355c0,0 -1.018,1.425 -1.573,3.091c-0.733,2.2 -0.786,3.147 0.478,3.736c0.653,0.305 3.708,-1.179 3.708,-1.179c-0.702,-0.984 -3.231,-0.478 -3.231,-0.478c0,0 1.208,-1.63 2.473,-2.304c1.264,-0.674 2.95,-0.337 2.95,-0.337l-1.433,-1.011c0,0 -0.084,-1.012 1.348,-4.215c1.433,-3.203 2.866,-5.731 8.429,-7.164c5.563,-1.433 8.344,-1.77 11.715,-0.169c3.372,1.602 5.901,3.372 5.901,3.372Z" style="fill:#fff;fill-rule:nonzero;"/><path d="M222.543,177.365c0,0 -1.797,-1.124 -3.933,-1.967c-1.884,-0.744 -4.434,-1.55 -4.434,-1.55c0,0 6.071,-1.059 9.435,-1.822c2.107,-0.477 3.095,-0.76 4.383,-1.404c1.349,-0.675 1.854,-1.349 1.854,-1.349c0,0 0.759,-0.337 1.855,-3.259c0.875,-2.335 -0.347,-6.45 0.168,-7.136c1.012,-1.348 7.592,0.371 10.451,4.832c2.108,3.288 0.253,8.682 0.253,8.682c0,0 1.882,-0.731 2.107,-5.647c0.262,-5.732 -6.281,-8.953 -6.281,-8.953c0,0 3.977,0.805 6.45,4.963c2.472,4.158 0.955,9.271 -2.529,13.766c-3.484,4.496 -11.294,4.384 -14.441,3.709c0,0 1.568,1.779 1.911,3.203c0.73,3.034 -0.281,4.776 -1.461,5.45c-1.015,0.58 -6.687,0.956 -8.484,1.012c-1.799,0.056 -2.529,0 -5.17,0.225c-2.641,0.224 -5.502,-0.337 -6.743,-0.337c-0.674,0 -1.236,0.224 -2.922,0.617c-2.631,0.615 -2.584,-0.056 -2.584,-0.056c0,0 0.449,-1.292 -2.922,-0.786c-2.335,0.35 -4.158,0.337 -4.158,0.337c0,0 -1.855,1.124 -5.17,0.505c-3.315,-0.617 -3.596,-2.696 -3.596,-2.696c0,0 2.528,1.179 5.226,1.123c2.697,-0.056 4.045,-1.573 4.045,-1.573c0,0 0.708,1.076 3.428,0.168c1.517,-0.505 2.191,-1.067 2.191,-1.067c0,0 5.315,0.329 5.844,0.393c1.854,0.225 5.9,0.562 5.9,0.562c0,0 0.449,0 3.821,0.225c2.312,0.154 4.079,0.307 4.214,-0.281c0.127,-0.547 -1.686,-1.25 -1.686,-1.25c0,0 3.204,0.407 4.777,0.463c1.157,0.042 2.135,-0.168 2.753,-0.562c0.618,-0.393 0.731,-2.247 0.056,-2.978c-0.877,-0.95 -0.587,-0.876 -1.77,-1.432c-2.865,-1.349 -2.444,-1.939 -2.444,-1.939c0,0 -0.809,-1.08 1.011,-0.253c0.927,0.422 -0.168,-1.18 -0.168,-1.18c0,0 -0.422,-0.421 -1.237,-0.758Zm12.194,-15.79c0,0 0.393,6.012 -1.349,8.822c-1.742,2.81 -5.956,6.237 -5.956,6.237c4.608,1.798 12.924,-0.674 14.272,-5.282c1.293,-4.417 -0.713,-8.23 -2.697,-9.439c-2.303,-1.405 -4.27,-0.338 -4.27,-0.338Z" style="fill:#fff;fill-rule:nonzero;"/><path d="M209.873,172.392c0,0 0.505,0.252 1.517,0.505c0.746,0.187 4.046,1.433 4.046,1.433c0,0 1.348,0.169 2.069,-0.615c1.073,-1.165 -2.899,0.101 -2.715,-1.183c0.056,-0.393 -0.703,-0.899 -0.703,-0.899c0,0 -1.18,-0.253 -2.107,-0.168c-1.855,0.168 -2.107,0.927 -2.107,0.927Z" style="fill:#fff;fill-rule:nonzero;"/><path d="M181.342,173.825c0,0 3.274,-0.113 6.532,-1.012c3.259,-0.899 3.877,-1.686 5.311,-2.107c1.079,-0.317 3.272,-0.183 3.272,-0.183c0,0 -0.604,0.211 -0.772,1.11c-0.169,0.899 0.168,1.574 0.168,1.574c0,0 1.179,-0.453 2.08,-0.281c0.9,0.171 1.151,0.73 1.151,0.73c0,0 -0.927,1.461 0.31,1.854c1.236,0.394 2.78,0.396 5.337,1.264c2.557,0.87 4.102,1.124 6.069,1.518c1.967,0.393 4.13,1.095 4.13,1.095c0,0 0.309,0.281 -0.422,0.675c-0.73,0.393 1.939,1.18 1.939,1.18c0,0 0.253,0.168 -1.601,0c-1.558,-0.142 -1.802,-0.05 -3.765,-0.45c-3.035,-0.618 -3.99,-0.618 -3.99,-0.618c0,0 -1.236,-0.225 -2.809,-0.281c-0.844,-0.03 -3.652,-0.168 -6.575,-0.506c-2.921,-0.337 -5.169,-0.843 -6.798,-1.461c-1.63,-0.617 -3.597,0 -3.597,0c0,0 -0.73,-0.786 -2.247,-0.168c-1.517,0.618 -2.163,2.22 -2.163,2.22c0,0 0.758,-0.422 1.545,-0.422c0.786,0 1.292,0.225 1.292,0.225c0,0 0.45,0.842 -0.281,1.517c-0.73,0.674 -2.022,1.236 -2.022,1.236c0,0 -0.057,-0.393 -3.147,-0.393c-3.09,0 -3.428,-0.45 -4.496,1.067c-1.067,1.518 -0.561,-2.472 -0.561,-2.472c0,0 0.73,-1.18 4.888,-3.147c4.158,-1.966 7.474,-1.741 9.047,-1.798c1.573,-0.056 3.596,0.113 5.619,0.45c1.276,0.213 4.495,1.348 4.495,1.348c0,0 -1.49,-1.308 -4.383,-2.36c-2.472,-0.899 -9.103,-0.842 -12.361,-0.112c-3.26,0.731 -4.496,0.056 -4.159,-0.45c0.338,-0.505 2.964,-0.842 2.964,-0.842Z" style="fill:#fff;fill-rule:nonzero;"/><path d="M183.042,179.893c0,0 1.461,-0.561 2.473,-0.168c0.399,0.155 0.561,0.224 0.842,0.562c0.281,0.336 0.955,0.899 0.955,0.899c0,0 -3.54,0.28 -2.809,1.966c0.73,1.686 2.641,1.405 2.641,1.405c0,0 -1.011,0.449 -1.292,1.517c-0.281,1.068 0.73,1.63 0.73,1.63l2.866,1.123l-1.742,0.618c0,0 -1.18,-0.505 -1.461,0.225c-0.281,0.73 -0.393,1.475 -0.393,1.475c0,0 -1.18,-1.194 -1.349,-2.768c-0.169,-1.572 1.012,-2.753 1.012,-2.753c0,0 -0.89,-0.76 -1.625,0.07c-0.735,0.829 -0.904,1.742 -0.904,1.742c0,0 -1.236,-1.137 -1.461,-2.71c-0.225,-1.574 1.012,-2.698 1.012,-2.698l0.505,-2.135Z" style="fill:#fff;fill-rule:nonzero;"/><path d="M157.11,141.628c-0.926,6.153 -3.118,8.934 -3.708,11.041c0,0 -0.506,-1.152 -1.77,-1.995c-1.167,-0.778 -3.203,0.45 -3.203,0.45c0,0 -1.854,-2.416 -6.068,-4.186c-3.445,-1.447 -3.034,1.545 -3.034,1.545c0,0 -2.81,-3.09 -3.934,-4.327c-1.459,-1.604 -2.978,-0.927 -4.327,-0.505c-1.348,0.421 -5.309,-0.169 -5.309,-0.169c0,0 -3.034,-0.253 -3.034,-3.118c0,-2.025 2.191,-2.782 2.191,-2.782c0,0 -1.854,-1.096 -1.686,-3.203c0.168,-2.107 2.444,-2.023 2.444,-2.023c0,0 -1.685,-1.348 -1.601,-2.444c0.084,-1.096 1.854,-2.866 3.118,-3.034c1.265,-0.169 5.751,2.271 7.839,2.781c1.896,0.464 1.037,2.911 4.408,4.285c1.434,0.584 3.936,1.194 7.055,1.194c3.118,0 4.214,1.18 7.754,2.023c3.54,0.843 3.877,-0.59 3.877,-0.59c0,0 -0.68,2.856 -1.012,5.057Zm-28.226,-13.716c-1.159,-0.485 -1.963,-0.288 -2.917,0.483c-0.326,0.64 -0.317,1.953 0.436,2.22c2.412,0.408 2.054,-1.545 4.469,-1.266c-0.697,-0.325 -1.398,-0.823 -1.988,-1.437Zm-2.481,10.064c-0.904,0.235 -2.235,1.397 -2.056,2.806c0.441,1.225 0.735,1.536 2.211,1.731c0.716,-0.169 1.267,-0.298 1.306,-0.801c0,0 -0.338,-0.309 -0.056,-0.59c0.899,-0.787 1.741,-0.597 2.528,-0.618c-1.18,-1.18 -1.756,-1.138 -2.304,-1.517c-1.457,-1.297 -0.484,-1.987 0.169,-2.529c0.432,-0.256 1.98,-0.111 2.745,0.233l-2.52,-2.986c-1.138,-0.716 -3.026,-0.985 -3.575,0.633c-0.106,0.421 -0.178,1.597 0.315,1.895c0.843,0.9 1.293,1.124 1.237,1.743Zm28.095,8.372c0,0 -0.52,-2.22 0.281,-4.158c0.801,-1.939 2.416,-3.372 2.416,-3.372c-1.752,1.001 -2.553,0.054 -7.02,-1.253c-4.467,-1.306 -6.803,-0.91 -8.573,-1.036c-1.77,-0.127 -5.9,-2.571 -6.532,-3.119c-0.632,-0.548 -0.508,-1.049 -0.913,-2.346c-0.281,-0.899 -1.517,-1.292 -2.36,-1.124c-0.843,0.169 -1.124,0.787 -1.124,0.787c0,0 -0.463,0.112 -1.348,0.281c-0.885,0.169 -1.405,1.292 -1.405,1.292c0,0 0.787,-0.365 1.503,-0.281c0.716,0.084 1.273,0.676 1.273,0.676c0.056,1.967 -0.162,2.023 0.624,3.372c1.047,1.794 3.286,3.763 3.286,3.763c2.208,1.481 5.17,2.697 5.676,2.921c0.344,0.154 2.127,1.013 3.708,1.574c1.742,0.618 3.203,2.528 3.203,2.528c0,0 0.016,-1.937 2.697,-1.067c2.079,0.674 4.608,0.562 4.608,0.562Z" style="fill:#fff;fill-rule:nonzero;"/><path d="M182.354,125.319c0,0 0.638,3.365 0.042,4.888c-1.138,2.908 -2.791,3.533 -3.287,6.308c-0.59,3.301 0.45,7.08 1.011,8.99c0.562,1.91 1.18,4.2 0.506,5.773c-0.674,1.574 -1.967,3.218 -2.866,5.128c-0.899,1.91 -1.475,4.397 -1.475,4.397c0,0 1.363,-3.049 2.262,-4.397c1.124,-1.686 2.819,-3.711 3.428,-5.45c1.475,-4.215 -0.731,-6.912 -1.18,-9.328c-0.557,-2.99 0.229,-5.499 1.854,-7.529c1.573,-1.967 1.967,-3.484 2.304,-5.395c0.404,-2.293 0.393,-4.27 0.393,-4.27l-2.992,0.885Z" style="fill:#fff;fill-rule:nonzero;"/><path d="M113.438,211.985c0,0 67.306,-1.704 84.504,-3.267c4.625,-0.42 12.804,-0.674 17.892,-1.179c5.089,-0.506 12.64,-0.843 12.64,-0.843c0,0 -2.349,1.1 -8.095,1.606c-6.542,0.575 -18.786,2.06 -24.44,2.06c-6.902,0 -29.895,1.661 -36.781,1.998c-28.327,1.385 -45.72,-0.375 -45.72,-0.375Z" style="fill:#fff;fill-rule:nonzero;"/><path d="M152.812,47.51l-17.278,76.924c0,0 -0.085,0.969 0.421,1.18c0.506,0.211 0.872,0.295 1.433,0.632c0.632,0.379 1.138,0.885 1.138,0.885c0,0 -1.307,-0.042 -2.824,-0.548c-1.427,-0.476 -1.685,-1.391 -1.685,-1.391l17.559,-77.457c0.562,-3.316 1.742,-10.283 1.91,-12.025c0.169,-1.742 -0.224,-1.348 -0.899,-0.505c-0.674,0.842 -2.809,6.18 -3.82,10.731c0,0 -16.857,70.687 -17.195,72.654c-0.337,1.967 -0.126,2.894 -1.053,4.453c-0.96,1.614 -1.827,1.925 -2.95,1.812c-0.841,-0.084 -2.009,-0.126 -2.234,0.548c-0.154,0.464 0.562,0.773 1.518,0.885c0.955,0.112 2.177,0.084 3.244,-0.21c1.222,-0.338 1.728,-0.506 1.728,-0.506c0,0 0.318,0.676 0.632,0.969c0.59,0.548 1.138,1.011 1.812,1.306c0.601,0.263 2.304,0.745 3.372,0.689c1.067,-0.057 1.292,0.562 1.461,1.011c0.168,0.45 1.028,0.936 2.135,0.393c0.744,-0.365 0.829,-1.755 0.113,-2.388c-0.86,-0.758 -2.08,0.085 -2.305,-0.309c-0.224,-0.393 0.871,-1.545 2.515,-0.955c1.388,0.499 2.213,1.748 1.602,3.582c-0.633,1.897 -2.712,1.868 -3.835,1.7c-1.124,-0.169 -1.743,-1.011 -2.136,-1.124c-0.393,-0.112 -1.236,-0.168 -1.236,-0.168c0,0 -7.417,-2.979 -8.035,-3.091c-0.618,-0.112 -2.192,0.168 -2.754,0.281c-0.561,0.113 -0.955,0.73 -2.359,0.506c-0.777,-0.124 -3.3,-1.1 -2.529,-3.414c0.562,-1.686 1.728,-2.402 3.498,-2.107c0.908,0.151 0.969,1.011 1.77,1.138c1.044,0.165 1.812,0.056 2.149,-1.011c0.337,-1.068 18.43,-73.16 18.43,-73.16c2.585,-8.541 4.552,-13.766 6.294,-15.958c1.742,-2.191 2.531,-4.093 2.247,0.787c-0.281,4.833 -0.768,8.154 -1.854,13.261Zm-29.752,78.48c0.543,0 0.983,-0.414 0.983,-0.924c0,-0.51 -0.44,-0.924 -0.983,-0.924c-0.543,0 -0.984,0.414 -0.984,0.924c0,0.51 0.441,0.924 0.984,0.924Z" style="fill:#fff;fill-rule:nonzero;"/><path d="M161.915,165.902c0,0 0.337,-5.563 2.528,-12.053c0.904,-2.677 2.81,-5.815 3.203,-8.513c0.451,-3.09 -0.421,-6.911 -0.252,-8.765c0.168,-1.854 0.336,-3.624 0.336,-3.624l1.181,0c0,0 -0.506,4.214 -0.169,5.984c0.337,1.77 0.898,5.022 0.253,7.333c-1.012,3.624 -2.99,6.064 -3.765,9.074c-0.955,3.709 -1.573,7.923 -1.629,11.856l-1.686,-1.292Z" style="fill:#fff;fill-rule:nonzero;"/><path d="M119.562,125.506c0.625,0 1.132,-0.48 1.132,-1.072c0,-0.593 -0.507,-1.073 -1.132,-1.073c-0.626,0 -1.133,0.48 -1.133,1.073c0,0.592 0.507,1.072 1.133,1.072Z" style="fill:#fff;fill-rule:nonzero;"/><path d="M127.779,150.475c0.824,0 1.49,-0.64 1.49,-1.43c0,-0.79 -0.666,-1.431 -1.49,-1.431c-0.822,0 -1.489,0.641 -1.489,1.431c0,0.79 0.667,1.43 1.489,1.43Z" style="fill:#fff;fill-rule:nonzero;"/><path d="M126.094,143.061c0,0 0.421,-0.295 -0.042,0.21c-0.464,0.506 -1.335,1.503 -1.11,2.627c0.224,1.124 1.11,2.473 2.964,2.684c1.854,0.21 3.371,-0.591 3.751,-2.276c0.379,-1.686 -0.169,-2.318 -0.633,-2.782c-0.463,-0.463 -2.359,0.169 -2.359,0.169c0.8,0.548 1.179,1.348 1.095,2.149c-0.084,0.801 -0.843,1.222 -1.559,1.096c-0.717,-0.127 -1.502,-0.701 -1.222,-1.644c0.337,-1.138 1.517,-1.601 1.517,-1.601c0,0 -0.042,-0.506 0.337,-0.759c0.379,-0.252 -2.739,0.127 -2.739,0.127Z" style="fill:#fff;fill-rule:nonzero;"/><path d="M144.062,131.393c0.842,0 1.524,-0.701 1.524,-1.565c0,-0.864 -0.682,-1.564 -1.524,-1.564c-0.842,0 -1.524,0.7 -1.524,1.564c0,0.864 0.682,1.565 1.524,1.565Z" style="fill:#fff;fill-rule:nonzero;"/><path d="M136.565,177.647c0,0 1.82,3.918 3.619,6.278c1.797,2.36 3.034,4.158 4.157,6.068c1.124,1.911 4.511,7.158 7.207,10.754c2.698,3.596 7.492,8.991 7.492,8.991c0,0 -6.27,-9.855 -8.181,-12.44c-1.91,-2.585 -3.708,-5.619 -5.506,-7.979c-1.798,-2.36 -7.665,-10.66 -8.788,-11.672Z" style="fill:#fff;fill-rule:nonzero;"/><path d="M152.517,177.463c0,0 7.417,8.991 11.126,13.373c3.708,4.383 5.619,7.867 7.417,10.002c1.798,2.135 7.038,8.218 7.038,8.218c0,0 -2.543,-5.746 -5.69,-9.117c-2.878,-3.084 -5.282,-6.968 -7.641,-9.777c-2.36,-2.809 -5.957,-7.642 -7.53,-8.991c-1.573,-1.348 -3.933,-3.82 -4.72,-3.708Z" style="fill:#fff;fill-rule:nonzero;"/><path d="M176.131,184.613c0,0 9.229,11.477 10.802,13.05c1.573,1.573 6.518,8.541 6.518,8.541c0,0 5.381,5.38 1.84,0.323c-0.859,-1.228 -5.45,-7.08 -7.473,-9.665c-2.023,-2.584 -4.382,-5.281 -6.293,-7.529c-2.11,-2.483 -5.057,-4.271 -5.394,-4.72Z" style="fill:#fff;fill-rule:nonzero;"/><path d="M198.79,189.811c0,0 1.46,2.809 3.034,4.27c1.573,1.461 4.607,4.945 5.618,6.181c1.012,1.236 6.976,6.354 6.976,6.354c0,0 -2.368,-3.32 -4.054,-5.006c-1.685,-1.685 -3.483,-3.483 -4.832,-5.057c-1.348,-1.573 -5.844,-6.068 -6.742,-6.742Z" style="fill:#fff;fill-rule:nonzero;"/><path d="M215.215,189.241c0,0 4.581,4.872 6.835,7.471c2.254,2.598 7.512,6.974 7.512,6.974c0,0 -1.126,-2.537 -2.769,-4.038c-1.642,-1.501 -4.834,-4.957 -6.145,-6.586c-1.31,-1.628 -3.285,-3.58 -3.285,-3.58l-2.148,-0.241Z" style="fill:#fff;fill-rule:nonzero;"/><path d="M140.753,200.88c0,0 7.197,-0.758 10.45,-0.927c3.253,-0.169 14.638,-0.337 18.866,-0.337c4.229,0 21.144,-1.349 26.999,-1.517c5.855,-0.169 15.451,-1.349 17.728,-1.349c2.277,0 22.105,-0.436 22.105,-0.436c0,0 -3.072,0.937 -9.216,1.311c-1.309,0.081 -14.027,1.148 -15.979,1.148c-1.952,0 -7.685,0.126 -7.685,0.126c0,0 -5.597,0.548 -8.417,0.38c-2.819,-0.169 -8.24,0.646 -8.24,0.646c0,0 -2.657,0.028 -6.072,0.365c-3.416,0.337 -9.596,0 -10.247,0.168c-0.65,0.169 -5.407,0.689 -9.582,0.745c-4.174,0.056 -7.929,-0.07 -8.417,-0.239c-0.488,-0.168 -3.795,0.169 -5.747,0.169c-1.951,0 -6.546,-0.253 -6.546,-0.253Z" style="fill:#fff;fill-rule:nonzero;"/><path d="M182.368,188.209l-11.014,0c-1.91,0 -8.512,0.534 -8.512,0.534c0,0 -5.872,-0.197 -8.906,-0.197c-3.034,0 -16.464,0.787 -16.464,0.787c0,0 4.383,0.506 16.52,0.168c2.955,-0.082 8.962,0 10.198,0c1.237,0 6.816,-0.063 8.513,-0.168c9.525,-0.59 9.665,-1.124 9.665,-1.124Z" style="fill:#fff;fill-rule:nonzero;"/><path d="M160.608,179.683c0,0 -9.229,0.126 -12.937,0.295c-3.709,0.168 -10.957,0.168 -10.957,0.168c0,0 2.191,-0.548 5.731,-0.716c3.54,-0.169 6.74,-0.049 8.765,-0.169c3.54,-0.211 9.398,0.422 9.398,0.422Z" style="fill:#fff;fill-rule:nonzero;"/><path d="M101.321,147.795c-0.161,-0.057 -0.323,-0.035 -0.47,0.049l-0.169,0.021c-0.077,0.035 -0.141,0.105 -0.162,0.182l-0.028,0.12c-0.295,0.477 -0.477,1.138 -0.07,1.602c0.421,0.47 1.264,0.428 1.236,1.32l-0.021,0.105l0.07,-0.337l-0.056,0.112c-0.077,0.155 -0.147,0.309 -0.224,0.464l-0.071,0.267c-0.063,0.168 -0.049,0.351 0.042,0.512l0.036,0.057c0.365,0.85 1.257,1.229 2.071,1.538c-0.238,0.428 -0.533,0.836 -0.604,1.341l-0.021,0.246c-0.007,0.148 0.035,0.289 0.113,0.408l0.091,0.133c0.26,0.583 0.913,0.808 1.398,1.187c0.14,0.112 0.042,0.33 -0.12,0.611c-0.414,0.724 -0.07,1.559 0.569,2.058c0.408,0.316 0.942,0.45 1.159,0.906c0.302,0.654 -0.246,1.3 -0.169,2.023c0.113,0.963 0.865,1.791 1.876,1.791c0.07,0 0.197,0.106 0.182,0.148c-0.14,0.554 -0.568,0.997 -0.491,1.622c0.113,0.976 0.976,1.279 1.622,1.77c-0.126,0.246 0.141,0.513 -0.196,0.745c-0.239,1.138 0.583,2.402 1.833,2.486c0.112,0.007 0.267,0.204 0.506,0.217c0.105,0.057 0.225,0.015 0.281,-0.09c0.049,-0.099 0.006,-0.225 -0.098,-0.274c-0.464,-0.569 -1.139,-1.012 -1.223,-1.805c0.548,-1.11 0.183,-2.564 -1.11,-2.993c-0.056,-0.021 -0.112,-0.161 -0.084,-0.217c0.309,-0.731 0.604,-1.546 0.197,-2.297c-0.302,-0.555 -0.927,-0.829 -1.581,-0.934c-0.049,-0.007 -0.091,-0.218 -0.077,-0.345c0.085,-0.688 0.309,-1.306 0.148,-2.023c-0.211,-0.961 -0.991,-1.495 -1.785,-1.889c-0.048,-0.021 -0.14,0.035 -0.217,0.063c0.71,-1.243 0.239,-2.956 -1.236,-3.329l-0.281,-0.344l0.119,0.408l0.042,-0.253c0.317,-0.78 0.632,-1.749 -0.196,-2.417c-0.457,-0.372 -1.068,-0.372 -1.51,-0.737l-0.211,-0.407l0.07,0.386l0.084,-0.246c0,0.014 -0.006,0.021 -0.006,0.035l0.189,-0.358c0.049,-0.099 0.077,-0.204 0.07,-0.316l-0.021,-0.274c-0.112,-0.878 -0.829,-1.461 -1.707,-1.643c-0.253,-0.05 -0.224,-0.422 -0.168,-0.668l0.098,-0.344l-0.098,0.141l0.218,-0.113c-0.204,-0.295 0.112,-0.203 0.203,-0.281c0.035,-0.014 0.056,-0.049 0.05,-0.091c-0.015,-0.035 -0.05,-0.056 -0.092,-0.049Z" style="fill:#fff;fill-rule:nonzero;"/><path d="M108.851,146.277c-0.162,-0.056 -0.138,0.13 -0.285,0.215l-0.169,0.021c-0.077,0.034 -0.14,0.105 -0.161,0.182l-0.029,0.119c-0.294,0.478 -0.477,1.139 -0.07,1.602c0.422,0.471 1.079,0.264 1.051,1.156l-0.022,0.105l0.071,-0.337l-0.056,0.112c-0.078,0.155 -0.148,0.309 -0.225,0.464l-0.07,0.267c-0.064,0.169 -0.05,0.351 0.042,0.513l0.035,0.055c0.365,0.851 1.257,1.23 2.072,1.539c-0.239,0.428 -0.534,0.836 -0.604,1.341l-0.021,0.246c-0.007,0.148 0.035,0.288 0.112,0.408l0.092,0.133c0.259,0.583 0.912,0.808 1.397,1.187c0.141,0.112 0.042,0.33 -0.119,0.611c-0.414,0.724 -0.07,1.559 0.569,2.058c0.407,0.316 0.941,0.45 1.159,0.906c0.302,0.653 -0.246,1.299 -0.169,2.023c0.112,0.962 0.864,1.791 1.875,1.791c0.07,0 0.197,0.106 0.183,0.148c-0.14,0.554 -0.569,0.997 -0.491,1.622c0.112,0.976 0.976,1.278 1.622,1.77c-0.126,0.246 0.14,0.513 -0.197,0.745c-0.238,1.137 0.583,2.402 1.833,2.486c0.113,0.007 0.267,0.204 0.506,0.218c0.106,0.056 0.225,0.014 0.281,-0.091c0.049,-0.099 0.007,-0.226 -0.098,-0.274c-0.464,-0.569 -1.138,-1.012 -1.222,-1.806c0.547,-1.109 0.182,-2.564 -1.11,-2.992c-0.056,-0.021 -0.113,-0.161 -0.084,-0.217c0.308,-0.731 0.604,-1.546 0.196,-2.297c-0.302,-0.555 -0.927,-0.829 -1.58,-0.934c-0.049,-0.007 -0.091,-0.218 -0.077,-0.345c0.084,-0.688 0.308,-1.306 0.147,-2.023c-0.211,-0.962 -0.99,-1.495 -1.784,-1.889c-0.049,-0.021 -0.14,0.035 -0.218,0.063c0.71,-1.243 0.239,-2.957 -1.236,-3.329l-0.281,-0.344l0.119,0.408l0.043,-0.253c0.316,-0.78 0.632,-1.749 -0.197,-2.417c-0.456,-0.372 -1.067,-0.372 -1.51,-0.737l-0.211,-0.407l0.071,0.386l0.084,-0.246c0,0.014 -0.007,0.021 -0.007,0.035l0.189,-0.358c0.05,-0.099 0.077,-0.204 0.071,-0.316l-0.021,-0.274c-0.113,-0.878 -0.643,-1.296 -1.521,-1.479c-0.253,-0.049 -0.225,-0.421 -0.169,-0.667l0.098,-0.345l-0.098,0.141l0.218,-0.112c-0.204,-0.295 0.112,-0.204 0.204,-0.281c0.035,-0.014 0.056,-0.049 0.049,-0.091c-0.014,-0.035 -0.235,-0.222 -0.277,-0.215Z" style="fill:#fff;fill-rule:nonzero;"/><path d="M115.767,145.4c-0.864,0.976 -0.352,2.613 0.856,3.028c0.485,0.533 -0.074,0.701 -0.243,1.249l-0.028,0.134c0,0.105 0.028,0.217 0.084,0.309l0.028,0.056c0.162,0.639 0.632,1.145 1.272,1.39l0.218,0.015l-0.184,-0.155l-0.013,-0.035c0.386,0.217 0.878,0.632 0.667,1.025c-0.618,1.152 -0.05,2.437 1.033,2.943l0.112,0.056l-0.316,-0.288l0.287,0.324c0.169,0.049 0.295,0.182 0.317,0.4c0.028,0.26 -0.085,0.484 -0.211,0.766c-0.499,1.116 0.52,2.134 1.468,2.767c0.147,0.098 0.225,0.274 0.19,0.449c-0.176,0.991 -0.654,2.086 0.295,2.789c0.625,0.47 1.039,0.969 1.32,1.657c0.014,0.183 0.169,0.324 0.351,0.309c0.183,-0.006 0.323,-0.161 0.316,-0.343c0.274,-0.668 0.225,-1.539 -0.309,-2.059c-0.309,-0.309 -0.646,-0.541 -1.095,-0.744c-0.127,-0.056 -0.225,-0.436 -0.148,-0.647c0.316,-0.878 0.358,-1.924 -0.274,-2.626c-0.351,-0.387 -0.892,-0.534 -1.173,-0.998c-0.449,-0.737 0.161,-1.509 0.084,-2.303c-0.014,-0.211 -0.105,-0.394 -0.238,-0.556l0.091,0.078c-0.077,-0.126 -0.183,-0.225 -0.309,-0.288l-0.351,-0.189c-0.485,-0.176 -0.928,-0.534 -1.054,-1.033c-0.183,-0.724 0.436,-1.426 0.063,-2.156l-0.028,-0.183c-0.098,-0.119 -0.224,-0.197 -0.372,-0.232l-0.19,-0.098c0.049,-0.007 0.091,-0.021 0.141,-0.028c-0.19,-0.169 -0.499,-0.127 -0.632,-0.379l-0.302,-0.303l0.084,0.31l0,-0.253c-0.155,0.028 -0.19,-0.134 -0.169,-0.183c0.323,-0.99 0.153,-1.72 -0.852,-2.275c-0.492,-0.274 -0.358,-0.941 -0.154,-1.419c0.077,-0.175 0,-0.379 -0.176,-0.456c-0.176,-0.078 -0.379,0 -0.456,0.175Z" style="fill:#fff;fill-rule:nonzero;"/><path d="M94.276,149.094c-0.863,0.976 -0.351,2.613 0.857,3.027c0.485,0.534 -0.021,1.138 -0.19,1.686l-0.028,0.133c0,0.106 0.028,0.218 0.085,0.309l0.028,0.057c0.161,0.639 0.632,1.145 1.271,1.39l0.218,0.014l-0.183,-0.154l-0.014,-0.035c0.387,0.218 0.878,0.632 0.667,1.025c-0.617,1.152 -0.049,2.437 1.033,2.943l0.112,0.056l-0.316,-0.288l0.288,0.324c0.169,0.049 0.295,0.182 0.316,0.4c0.028,0.26 -0.084,0.485 -0.211,0.766c-0.498,1.116 0.52,2.135 1.469,2.767c0.147,0.098 0.224,0.274 0.189,0.449c-0.176,0.991 -0.653,2.086 0.295,2.789c0.626,0.47 1.04,0.969 1.321,1.657c0.014,0.183 0.168,0.323 0.351,0.309c0.183,-0.007 0.323,-0.161 0.316,-0.344c0.274,-0.667 0.224,-1.538 -0.309,-2.058c-0.309,-0.309 -0.646,-0.541 -1.096,-0.744c-0.126,-0.056 -0.225,-0.436 -0.147,-0.646c0.316,-0.878 0.358,-1.925 -0.274,-2.627c-0.351,-0.386 -0.892,-0.534 -1.173,-0.998c-0.45,-0.737 0.161,-1.51 0.084,-2.303c-0.014,-0.211 -0.105,-0.394 -0.239,-0.555l0.091,0.077c-0.077,-0.126 -0.182,-0.225 -0.308,-0.288l-0.352,-0.19c-0.484,-0.175 -0.927,-0.533 -1.054,-1.032c-0.182,-0.723 0.436,-1.426 0.064,-2.157l-0.028,-0.182c-0.098,-0.119 -0.225,-0.197 -0.372,-0.232l-0.19,-0.098c0.049,-0.007 0.091,-0.021 0.14,-0.029c-0.189,-0.168 -0.498,-0.126 -0.632,-0.378l-0.302,-0.303l0.085,0.309l0,-0.253c-0.155,0.029 -0.19,-0.133 -0.169,-0.182c0.323,-0.99 0.098,-2.156 -0.906,-2.711c-0.492,-0.274 -0.358,-0.941 -0.154,-1.419c0.077,-0.175 0,-0.379 -0.176,-0.457c-0.176,-0.077 -0.38,0 -0.457,0.176Z" style="fill:#fff;fill-rule:nonzero;"/><path d="M101.609,168.044c-0.182,0.667 0.091,1.321 0.709,1.721c0.261,0.169 0.338,0.59 0.401,0.948c-0.056,-0.084 -0.119,-0.175 -0.176,-0.26c-0.035,0.141 -0.077,0.288 -0.112,0.429l-0.092,0.253c-0.035,0.112 -0.035,0.224 -0.007,0.337l0.064,0.203c0.295,0.78 1.032,1.229 1.636,1.742c0.253,0.218 0.633,0.197 0.857,-0.056c0.218,-0.253 0.197,-0.639 -0.056,-0.857c-0.358,-0.33 -0.737,-0.639 -1.103,-0.955l-0.204,-0.393l-0.013,0.365l0.063,-0.189c0.449,-0.942 -0.071,-2.312 -1.145,-2.431c-0.099,-0.014 -0.253,0.176 -0.435,-0.127c-0.141,-0.224 -0.176,-0.491 -0.247,-0.744c-0.006,-0.035 -0.042,-0.063 -0.077,-0.063c-0.035,0.007 -0.063,0.042 -0.063,0.077Z" style="fill:#fff;fill-rule:nonzero;"/><path d="M106.891,177.793c-0.084,-0.021 -0.169,-0.042 -0.253,-0.063l0.028,-0.148c-0.063,0 -0.133,0.021 -0.182,0.063l-0.19,0.197c-0.836,0.963 -0.007,2.058 0.414,2.986c0.028,0.069 -0.168,0.294 -0.428,0.463c-0.688,0.449 -0.738,1.538 -0.141,2.086c0.422,0.393 1.075,0.779 0.829,1.37c-0.295,0.702 -1.095,1.166 -1.047,2.022c0.036,0.597 0.471,1.019 0.759,1.51c0.478,0.794 -0.519,1.433 -0.723,2.234c-0.162,0.66 0.119,1.419 0.772,1.742c0.38,0.85 -0.716,1.334 -0.892,2.1l-0.056,0.091c-0.056,0.106 -0.084,0.225 -0.077,0.344l0.028,0.253c0.028,0.267 0.176,0.478 0.323,0.689c0.239,0.344 0.752,0.548 0.702,0.962c-0.084,0.744 -0.632,1.271 -1.278,1.658c-0.274,0.175 -0.344,0.54 -0.168,0.807c0.182,0.267 0.541,0.344 0.814,0.162c1.082,-0.471 1.848,-1.433 1.918,-2.627c0.035,-0.696 -0.429,-1.293 -0.955,-1.707l-0.12,-0.288l-0.077,0.351l0.133,-0.337c0.359,-0.695 0.963,-1.299 0.949,-2.121c-0.015,-0.723 -0.45,-1.321 -0.857,-1.883c0.519,-0.765 0.871,-1.622 0.807,-2.577c-0.049,-0.759 -0.892,-1.138 -0.884,-1.84c0.006,-0.492 0.554,-0.829 0.702,-1.342c0.295,-1.011 -0.393,-1.861 -0.541,-2.802c0.323,-0.506 0.618,-1.103 0.358,-1.756c-0.281,-0.703 -1.089,-1.194 -0.793,-2.093l0.091,-0.204l-0.19,0.063l0.078,-0.021c0.056,-0.028 0.112,-0.063 0.168,-0.091c0.098,-0.091 0.098,-0.246 0.007,-0.337c-0.084,-0.099 -0.239,-0.106 -0.337,-0.014l0.309,0.098Z" style="fill:#fff;fill-rule:nonzero;"/><path d="M114.125,177.245c-0.281,-0.084 -0.569,0.042 -0.758,0.246c-0.941,1.018 -0.45,2.311 0.302,3.343c0.07,0.099 0.049,0.358 -0.035,0.478c-0.689,0.906 -1.075,1.896 -0.681,2.978c0.196,0.548 0.66,0.892 0.948,1.391c0.084,0.147 0.035,0.358 -0.092,0.477c-1.067,1.005 -1.257,2.739 -0.042,3.674c0.204,0.512 0.099,1.067 -0.379,1.348l-0.148,0.176c-0.077,0.091 -0.119,0.197 -0.14,0.309l-0.035,0.239c-0.155,0.948 0.351,1.714 0.864,2.5c0.084,0.127 0.084,0.407 -0.014,0.492c-0.759,0.723 -1.511,1.566 -1.229,2.662c0.021,0.372 0.336,0.653 0.709,0.632c0.372,-0.021 0.653,-0.344 0.632,-0.716c-0.007,-0.211 -0.098,-0.464 -0.028,-0.612c0.323,-0.702 1.103,-1.102 1.25,-1.938c0.155,-0.864 -0.33,-1.468 -0.814,-2.142c-0.127,-0.19 -0.099,-0.443 -0.085,-0.675l0.021,-0.238l-0.141,0.309l0.106,-0.155c0.766,-0.541 0.941,-1.524 0.695,-2.395c-0.161,-0.576 -0.695,-0.892 -0.849,-1.447c-0.239,-0.899 0.379,-1.58 0.61,-2.416c0.043,-0.162 0.036,-0.33 -0.014,-0.492c-0.21,-0.695 -0.54,-1.355 -0.428,-2.072c0.106,-0.667 0.639,-1.173 0.745,-1.875c0.147,-1.033 -0.583,-1.693 -1.117,-2.5c-0.316,-0.485 -0.126,-1.019 0.204,-1.454c0.042,-0.015 0.056,-0.057 0.035,-0.092c-0.014,-0.042 -0.056,-0.056 -0.092,-0.035Z" style="fill:#fff;fill-rule:nonzero;"/><path d="M121.079,176.227c-0.288,0 -0.569,0.049 -0.787,0.344c-1.032,1.39 -0.077,2.992 0.597,4.263c-0.197,0.204 -0.224,0.52 -0.407,0.696c-1.11,1.081 -0.597,3.02 0.344,4.003l0.049,-0.063l0,-0.007l0.021,0.049c0.134,0.176 0.295,0.344 0.197,0.625c-0.26,0.78 -0.934,1.356 -0.955,2.198c-0.021,0.619 0.302,1.118 0.59,1.658c0.182,0.344 0.47,0.829 0.189,1.096c-1.292,1.208 -0.386,2.992 0.401,4.109c0.035,0.738 -0.218,1.475 -0.731,2.015c-0.196,0.141 -0.239,0.408 -0.098,0.598c0.134,0.196 0.4,0.238 0.597,0.105c0.414,-0.126 0.801,-0.323 1.081,-0.681c0.836,-1.04 0.745,-2.578 -0.154,-3.582c-0.73,-0.815 0.028,-1.644 0.105,-2.515c0.07,-0.807 -0.393,-1.552 -0.899,-2.268c-0.239,-0.338 -0.281,-0.745 -0.126,-1.139c0.337,-0.835 1.018,-1.629 0.807,-2.598l0.05,-0.056c-0.063,-0.162 -0.183,-0.281 -0.345,-0.345l0.022,-0.105c-0.113,-0.555 -0.513,-1.138 -0.183,-1.7c-0.07,0.064 -0.14,0.127 -0.211,0.19c0.97,-0.639 1.588,-1.952 1.124,-3.069c-0.491,-1.187 -2.065,-2.283 -1.194,-3.681c0.035,-0.028 0.049,-0.077 0.028,-0.112c-0.028,-0.035 -0.077,-0.049 -0.112,-0.028Z" style="fill:#fff;fill-rule:nonzero;"/><path d="M129.254,178.369c-0.744,-0.035 -1.004,0.808 -1.06,1.405c-0.064,0.667 0.274,1.208 0.674,1.756c0.106,0.14 0.169,0.351 0.12,0.498c-0.197,0.668 -0.878,1.11 -0.949,1.82c-0.091,0.976 0.59,1.818 1.279,2.444l0.154,0.105l-0.281,-0.351l0.021,0.056c0.063,0.864 -0.892,1.334 -1.137,2.121c-0.303,0.969 0.435,1.714 0.934,2.501c0.042,0.063 0.056,0.182 0.021,0.232c-0.506,0.646 -1.005,1.271 -0.927,2.106c0.084,0.984 0.898,1.56 1.355,2.353c-0.063,1.005 -0.33,1.974 -1.293,2.501c-0.09,0.063 -0.111,0.189 -0.048,0.274c0.056,0.091 0.182,0.12 0.274,0.056c0.618,-0.379 1.32,-0.625 1.784,-1.215c0.561,-0.716 0.912,-1.686 0.393,-2.543c-0.323,-0.533 -0.773,-0.899 -1.103,-1.418c-0.091,-0.141 -0.112,-0.386 -0.028,-0.513c0.365,-0.534 0.709,-1.026 0.815,-1.651c0.119,-0.772 -0.527,-1.243 -0.913,-1.861c-0.106,-0.162 -0.183,-0.337 -0.07,-0.491c0.639,-0.886 1.454,-1.799 1.166,-2.915l0.042,-0.05c-0.05,-0.147 -0.148,-0.266 -0.281,-0.351l-0.035,-0.084c-0.232,-0.309 -0.148,-0.794 -0.71,-0.92c0.597,-0.731 1.377,-1.531 1.173,-2.585c-0.154,-0.773 -0.639,-1.292 -1.18,-1.833c-0.365,-0.373 -0.154,-0.871 -0.049,-1.32c0.035,-0.036 0.035,-0.099 -0.007,-0.134c-0.035,-0.035 -0.098,-0.035 -0.134,0.007Z" style="fill:#fff;fill-rule:nonzero;"/><path d="M96.688,201.412c0,0 5.601,-0.4 8.756,-0.785c3.456,-0.421 10.18,-0.029 16.137,-0.254c6.468,-0.245 14.885,-1.014 14.885,-1.014c0,0 0.725,-6.318 0.051,-10.363c-0.674,-4.046 -0.225,-12.811 -0.225,-12.811c0,0 1.349,5.281 1.574,8.541c0.224,3.258 0.561,7.529 0.786,9.552c0.225,2.023 0.113,1.91 0.45,4.045c0.337,2.135 0.394,4.969 0.394,4.969c0,0 -3.733,1.3 -6.334,1.144c-2.601,-0.156 -9.119,-0.606 -12.153,-0.044c-3.034,0.562 -5.17,0.899 -9.328,0.674c-4.158,-0.225 -8.203,-0.112 -8.878,0.45c-0.674,0.562 -2.247,-1.574 -2.247,-1.574c0,0 6.068,-0.899 9.552,-0.674c3.484,0.225 11.223,-0.423 13.471,-0.648c2.247,-0.225 6.174,0.493 8.106,0.311c4.63,-0.435 5.281,-1.574 5.281,-1.574c0,0 -3.685,-0.21 -8.518,0.015c-4.832,0.224 -8.778,0.499 -12.486,0.499c-3.709,0 -9.49,0.025 -11.737,0.25c-2.248,0.225 -5.495,0.624 -5.495,0.624l-2.042,-1.333Z" style="fill:#fff;fill-rule:nonzero;"/><path d="M114.125,204.841c0,0 0.349,1.662 0.653,3.271c0.641,3.389 4.589,6.388 4.589,6.388l2.107,0.675l-0.59,-1.517c0,0 -3.632,-3.073 -4.182,-5.363c-0.286,-1.193 -0.048,-3.454 -0.048,-3.454l-2.529,0Z" style="fill:#fff;fill-rule:nonzero;"/><path d="M132.71,203.83c0,0 0.208,1.807 0.85,4.373c0.674,2.697 4.955,6.178 4.58,5.589c0.59,0.927 1.893,1.544 1.893,1.544l1.226,-0.111l-0.49,-1.397c0,0 -4.175,-3.456 -4.919,-5.167c-1.686,-3.877 -0.356,-3.874 -0.909,-4.917c-0.353,-0.668 -2.231,0.086 -2.231,0.086Z" style="fill:#fff;fill-rule:nonzero;"/><path d="M84.737,147.362l0.254,0.728c0,0 5.956,-1.349 9.609,-1.967c3.652,-0.618 5.113,-0.506 11.069,-1.742c5.956,-1.236 13.598,-1.91 13.598,-1.91c0,0 3.034,6.012 4.326,8.934c1.293,2.922 5.057,9.777 5.057,9.777c0,0 -0.786,-5.057 -1.854,-6.686c-1.068,-1.63 -3.371,-6.238 -4.158,-8.148c-0.786,-1.911 -2.437,-6.412 -2.437,-6.412c0,0 -4.442,1.202 -4.755,1.242c-0.313,0.04 -0.393,-0.168 -0.393,-0.168c0,0 0.112,-2.416 -0.225,-3.484c-0.337,-1.068 -4.608,-7.81 -4.608,-7.81l-1.629,-1.068l0.674,2.416c0,0 2.641,3.708 3.259,5.507c0.618,1.798 0.618,4.945 0.618,4.945l-16.632,3.034c0,0 -1.236,-3.934 -2.798,-6.773c-0.502,-0.913 -3.664,-2.386 -4.001,-2.836c-0.337,-0.449 -0.899,-1.236 -0.899,-1.236l-0.899,-0.618c0,0 -0.638,1.912 0,2.753c1.236,1.63 2.921,1.461 3.989,3.034c1.927,2.839 2.304,5.957 2.304,5.957l-8.372,1.854l-1.097,0.677Z" style="fill:#fff;fill-rule:nonzero;"/><path d="M118.759,144.345l0.449,-0.786c0,0 -3.456,0.421 -4.888,0.505c-1.433,0.085 -6.963,1.126 -9.829,1.8c-2.866,0.674 -8.091,0.927 -11.21,1.517c-3.118,0.59 -8.723,2.234 -8.723,2.234c0,0 3.607,7.184 4.703,10.724c1.096,3.54 1.606,9.323 3.456,12.727c2.107,3.877 5.9,4.467 5.9,4.467c0,0 3.419,-1.56 7.712,-1.896c4.298,-0.337 8.344,-1.939 12.306,-2.276c3.961,-0.337 7.164,-1.601 7.164,-1.601c0,0 -1.897,-1.56 -4.509,-0.97c-2.613,0.59 -9.162,2.46 -10.663,2.74c-1.812,0.337 -5.52,0.716 -7.206,1.222c-1.276,0.383 -4.088,0.927 -4.088,0.927c0,0 -3.118,-0.632 -4.93,-5.352c-1.666,-4.34 -1.728,-6.027 -3.793,-10.536c-1.587,-3.465 -4.113,-9.586 -4.113,-9.586c0,0 3.329,-0.801 5.52,-1.307c2.191,-0.505 2.613,-0.084 8.597,-1.348c5.984,-1.264 11.627,-2.305 14.38,-2.699c1.031,-0.147 3.625,-0.451 3.765,-0.506Z" style="fill:#fff;fill-rule:nonzero;"/><path d="M99.319,177.083c0,0 -0.442,3.597 -0.337,5.957c0.225,5.057 2.36,8.204 1.798,11.575c-0.562,3.371 -2.416,6.855 -2.416,6.855l-1.18,-0.674c0,0 1.686,-4.608 1.461,-7.193c-0.225,-2.584 -1.461,-7.529 -1.349,-10.226c0.113,-2.697 0.787,-6.068 0.787,-6.068l1.236,-0.226Z" style="fill:#fff;fill-rule:nonzero;"/><path d="M181.059,97.41c0.778,-0.47 1.303,-1.311 1.303,-2.28c0,-1.478 -1.21,-2.676 -2.703,-2.676c-1.494,0 -2.704,1.198 -2.704,2.676c0,0.259 0.049,0.505 0.118,0.742c-0.503,-0.347 -1.555,-0.474 -2.634,-0.136c-1.078,0.338 -2.146,1.081 -2.146,2.784c0,1.704 0.813,2.981 2.534,2.981c0.176,0 -0.168,0.028 0,0c-0.107,0.131 0.03,-0.097 0,0c-0.202,0.66 -1.121,1.68 -2.582,1.273c-2.183,-0.609 -1.895,-2.677 -1.895,-2.677c0,0 -2.038,1.475 -3.425,0.632c-1.66,-1.008 -0.74,-1.66 -0.74,-1.66c2.125,0.243 3.746,-2.153 3.067,-3.899c-0.66,-1.694 -2.788,-2.622 -4.377,-1.838c0,0 0.301,-1.976 -2.884,-2.389c-2.29,-0.297 -3.793,2.716 -3.138,4.121c0.333,0.714 0.562,0.89 2.623,4.401c2.06,3.512 2.669,5.563 2.669,5.563c0.033,0.127 0.087,0.38 0.087,0.696c0,0.45 0.113,0.731 0.113,0.731c0,0 2.978,0.309 9.777,2.668c6.799,2.36 11.407,4.918 11.407,4.918c0,0 0.055,-0.226 0.112,-0.619c0.013,-0.09 0.028,-0.181 0.045,-0.271c0.103,-0.462 1.488,-1.878 2.935,-2.793c4.488,-2.84 6.293,-3.519 8.548,-4.787c1.492,-0.838 0.936,-3.602 -0.515,-4.307c-2.849,-1.385 -3.801,0.269 -3.801,0.269c-0.966,-1.329 -3.311,-1.498 -4.784,-0.403c-1.518,1.128 -1.38,3.786 0.598,4.511c0,0 0.046,0.605 -1.794,1.047c-1.686,0.406 -2.192,-2.102 -2.192,-2.102c0,0 -1.309,1.48 -3.956,0.81c-0.817,-0.207 -1.602,-1.106 -1.299,-2.678c0.543,0.907 1.163,0.775 2.123,0.71c1.516,-0.101 2.662,-1.12 2.662,-2.824c0,-1.354 -0.992,-2.618 -2.219,-3.031m0,0c-0.294,-0.099 -0.608,-0.156 -0.933,-0.163m-17.206,3.508c-0.616,-1.572 -2.978,-5.046 -3.408,-6.135c-0.368,-0.934 0.861,-2.26 2.06,-1.873c1.098,0.354 1.301,2.52 1.301,2.52c0,0 1.246,-1.609 3.019,-0.615c1.185,0.665 0.924,1.778 0.309,2.438c-0.759,0.816 -2.626,0.231 -2.626,0.231c0,0 -1.404,2.171 1.697,4.323c2.294,1.592 3.605,-0.047 3.605,-0.047c0,0 0.141,1.592 1.873,2.06c0.822,0.222 2.777,1.42 4.495,-1.826c0.389,-0.735 0.57,-2.015 0.317,-2.065c-0.253,-0.051 -0.553,-0.016 -0.959,-0.016c-0.818,0 -1.481,-0.626 -1.481,-1.399c0,-0.773 0.553,-1.517 1.371,-1.517c0.412,0 0.785,0.16 1.053,0.418l0.008,-0.05c0,0 0.865,1.141 1.957,-0.104c0.426,-0.484 0.012,-1.691 0.012,-1.691c0.001,-0.001 0.002,-0.002 0.003,-0.004c-0.055,-0.135 -0.089,-0.281 -0.089,-0.436c0,-0.673 0.577,-1.217 1.289,-1.217c0.711,0 1.288,0.544 1.288,1.217c0,0.526 -0.354,0.97 -0.848,1.14c-0.219,0.213 -0.621,0.664 -0.709,1.187c-0.219,1.277 1.674,1.355 1.674,1.355l-0.055,0.09c0.026,-0.002 0.05,-0.008 0.075,-0.008c0.818,0 1.481,0.627 1.481,1.4c0,0.773 -0.666,1.473 -1.481,1.399c-1.001,-0.09 -1.557,-1.105 -2.113,-1.004c0,0 -3.036,3.886 0.946,5.638c2.29,1.007 3.874,-0.055 3.874,-0.055c0,0 0.968,1.717 2.898,1.786c2.848,0.101 4.278,-2.98 4.278,-2.98c0,0 -1.935,-0.335 -2.162,-1.33c-0.184,-0.806 0.18,-1.826 1.564,-1.853c2.069,-0.04 2.596,1.879 2.596,1.879c0,0 0.562,-1.114 1.676,-1.293c1.146,-0.184 2.036,1.44 1.217,2.014c-0.734,0.512 -4.581,2.656 -6.505,3.939c-2.244,1.496 -2.565,1.649 -3.516,2.46c-0.533,0.455 -0.914,1.041 -1.206,1.236l-1.181,-0.45c0,0 0.056,0 -2.136,-0.899c-2.191,-0.899 -2.472,-1.068 -2.472,-1.068c0,0 -1.16,-0.563 -3.689,-1.463c-2.529,-0.898 -4.489,-1.557 -4.489,-1.557c0,0 0.312,0.267 -1.936,-0.463c-2.248,-0.731 -2.079,-0.674 -2.079,-0.674l-1.249,-0.306c-0.033,-0.066 -0.062,-0.125 -0.1,-0.2c0,0 -0.64,-2.073 -1.447,-4.132Z" style="fill:#fff;fill-rule:nonzero;"/><path d="M167.531,110.532c0.352,0.093 1.82,1.201 2.498,1.935c0.749,0.812 1.436,2.123 1.436,2.123c0,0 -1.639,-0.703 -3.778,0.016c-1.952,0.655 -2.715,0.046 -2.778,-0.703c-0.062,-0.749 0.562,-1.436 0.562,-1.436c0,0 -0.58,0.912 0.531,1.202c1.077,0.281 1.639,-0.117 1.639,-0.117c0,0 -1.172,-0.146 -1.265,-0.796c-0.093,-0.656 0.359,-1.03 0.796,-1.218c0,0 -0.456,-0.318 -1.826,0.07c-1.045,0.297 -1.077,1.203 -1.264,1.452c-0.188,0.25 -0.271,0.091 -0.188,-0.687c0.141,-1.303 -0.233,-2.872 3.637,-1.841Z" style="fill:#fff;fill-rule:nonzero;"/><path d="M177.429,88.68c0.969,0 1.755,-0.795 1.755,-1.776c0,-0.981 -0.786,-1.776 -1.755,-1.776c-0.97,0 -1.756,0.795 -1.756,1.776c0,0.981 0.786,1.776 1.756,1.776Z" style="fill:#fff;fill-rule:nonzero;"/><path d="M165.039,89.615c0,-1.456 1.2,-2.637 2.68,-2.637c1.479,0 2.679,1.181 2.679,2.637c0,1.457 -1.2,2.637 -2.679,2.637c-1.48,0 -2.68,-1.18 -2.68,-2.637Zm2.68,1.146c0.685,0 1.24,-0.513 1.24,-1.146c0,-0.633 -0.555,-1.145 -1.24,-1.145c-0.686,0 -1.241,0.512 -1.241,1.145c0,0.633 0.555,1.146 1.241,1.146Z" style="fill:#fff;fill-rule:nonzero;"/><path d="M170.745,87.728c0,-1.19 0.991,-2.156 2.213,-2.156c1.223,0 2.214,0.966 2.214,2.156c0,1.19 -0.991,2.156 -2.214,2.156c-1.222,0 -2.213,-0.966 -2.213,-2.156Zm2.204,0.877c0.499,0 0.903,-0.384 0.903,-0.858c0,-0.475 -0.404,-0.859 -0.903,-0.859c-0.498,0 -0.903,0.384 -0.903,0.859c0,0.474 0.405,0.858 0.903,0.858Z" style="fill:#fff;fill-rule:nonzero;"/><path d="M180.811,77.946c0,0 -0.437,0.437 -0.749,1.249c-0.313,0.811 -0.313,1.935 -0.313,1.935c0,0 3.226,-0.504 3.372,0.25c0.146,0.754 -0.374,1.269 -0.374,1.269l1.925,0.664c0,0 -0.115,-1.309 0.322,-1.434c0.437,-0.125 2.685,1.873 2.685,1.873c0,0 0.562,-0.125 1.123,-1.311c0.493,-1.04 -0.125,-1.873 -0.125,-1.873c0,0 -3.183,0.624 -3.183,-0.25c0,-0.874 2.247,-2.996 2.247,-2.996c0,0 -0.632,-0.903 -1.72,-1.201c-1.371,-0.375 -1.651,-0.11 -1.651,-0.11c0,0 -0.125,3.683 -0.624,3.745c-0.5,0.063 -2.935,-1.81 -2.935,-1.81Z" style="fill:#fff;fill-rule:nonzero;"/><path d="M165.996,93.224c0,0 2.096,-1.896 5.996,-3.383c3.9,-1.487 6.148,-1.444 7.403,-1.794c1.256,-0.351 2.384,-0.579 2.384,-0.579c0,0 1.087,1.957 0.333,2.192c-0.754,0.235 -1.932,-0.224 -4.12,-0.079c-2.188,0.146 -4.142,1.1 -6.535,2.123c-2.393,1.024 -3.363,2.809 -3.363,2.809l-2.098,-1.289Z" style="fill:#fff;fill-rule:nonzero;"/><path d="M185.563,91.018c-0.834,-0.495 -1.104,-1.58 -0.604,-2.423c0.5,-0.844 1.582,-1.127 2.416,-0.633c0.834,0.495 1.104,1.58 0.604,2.424c-0.501,0.843 -1.582,1.127 -2.416,0.632Z" style="fill:#fff;fill-rule:nonzero;"/><path d="M192.512,102.182c0,0 -0.914,-3.873 -3.384,-7.238c-2.469,-3.365 -4.38,-4.548 -5.245,-5.524c-0.864,-0.976 -1.688,-1.78 -1.688,-1.78c0,0 -1.974,1.054 -1.469,1.661c0.505,0.607 1.744,0.86 3.503,2.169c1.76,1.31 2.884,3.171 4.338,5.329c1.454,2.158 1.482,4.786 1.482,4.786l2.463,0.597Z" style="fill:#fff;fill-rule:nonzero;"/><path d="M191.738,99.596c-1.272,-0.755 -1.702,-2.383 -0.959,-3.635c0.743,-1.253 2.377,-1.657 3.65,-0.902c1.273,0.755 1.702,2.382 0.959,3.635c-0.743,1.253 -2.377,1.657 -3.65,0.902Zm1.312,-1.123c0.686,0 1.241,-0.513 1.241,-1.145c0,-0.633 -0.555,-1.146 -1.241,-1.146c-0.685,0 -1.24,0.513 -1.24,1.146c0,0.632 0.555,1.145 1.24,1.145Z" style="fill:#fff;fill-rule:nonzero;"/><path d="M179.832,85.563c0,-1.609 1.305,-2.914 2.915,-2.914c1.608,0 2.913,1.305 2.913,2.914c0,1.609 -1.305,2.914 -2.913,2.914c-1.61,0 -2.915,-1.305 -2.915,-2.914Zm2.915,1.458c0.811,0 1.469,-0.652 1.469,-1.458c0,-0.806 -0.658,-1.459 -1.469,-1.459c-0.812,0 -1.47,0.653 -1.47,1.459c0,0.806 0.658,1.458 1.47,1.458Z" style="fill:#fff;fill-rule:nonzero;"/><path d="M188.816,94.54c-1.051,-0.624 -1.412,-1.959 -0.804,-2.983c0.607,-1.024 1.952,-1.349 3.004,-0.725c1.051,0.624 1.411,1.959 0.804,2.983c-0.607,1.024 -1.952,1.349 -3.004,0.725Zm1.1,-1.005c0.499,0 0.903,-0.385 0.903,-0.859c0,-0.474 -0.404,-0.859 -0.903,-0.859c-0.499,0 -0.903,0.385 -0.903,0.859c0,0.474 0.404,0.859 0.903,0.859Z" style="fill:#fff;fill-rule:nonzero;"/><path d="M175.794,107.426c0.61,0 0.957,-0.658 0.957,-1.194c0,-0.537 -0.494,-0.971 -1.104,-0.971c-0.609,0 -1.103,0.434 -1.103,0.971c0,0.536 0.641,1.194 1.25,1.194Z" style="fill:#fff;fill-rule:nonzero;"/><path d="M26.065,368.199c1.8,0 3.6,0.2 5.45,0.2c1.8,0 2.909,-0.2 4.71,-0.2l0,1.1c-2.25,0.3 -2.801,1.8 -2.801,5c0,4.75 -0.05,9.5 -0.05,14.25c0,6.701 3.101,11.451 10.551,11.451c4.05,0 9.2,-2.35 9.2,-8l0,-5.901c0,-5.9 -0.45,-11.8 -0.45,-14.3c0,-1.4 -1.35,-2.35 -2.55,-2.5l0,-1.1c1.8,0 3.327,0.2 5.128,0.2c1.799,0 3.149,-0.2 4.95,-0.2l0,1.1c-1.651,0.05 -2.35,2 -2.35,3.701c0,1.899 -0.15,7.099 -0.15,13.699l0,10.901c0,2.8 0.55,4.25 2.75,4.4l0,1.1c-1.401,0 -2.85,-0.2 -4.25,-0.2c-1.401,0 -2.027,0.2 -3.428,0.2c0.1,-1.7 0.25,-3.25 0.35,-4.75c-3.65,3.4 -6.509,5.35 -11.609,5.35c-6.067,0 -12.751,-4.25 -12.751,-11.75l0,-8.351c0,-3.9 -0.25,-7.35 -0.25,-10.45c0,-1.95 -0.35,-3.55 -2.45,-3.85l0,-1.1Z" style="fill:#fff;fill-rule:nonzero;"/></g></svg>