<?xml version="1.0" encoding="UTF-8" standalone="no"?>
<!DOCTYPE svg PUBLIC "-//W3C//DTD SVG 1.1//EN" "http://www.w3.org/Graphics/SVG/1.1/DTD/svg11.dtd">
<svg width="100%" height="100%" viewBox="0 0 220 47" version="1.1" xmlns="http://www.w3.org/2000/svg" xmlns:xlink="http://www.w3.org/1999/xlink" xml:space="preserve" xmlns:serif="http://www.serif.com/" style="fill-rule:evenodd;clip-rule:evenodd;">
    <g transform="matrix(1,0,0,1,-3.41562e-05,0)">
        <g transform="matrix(1,0,0,1,-10.1815,-10.63)">
            <path d="M13,42.81C12.929,43.462 13.066,44.12 13.39,44.69C13.871,45.239 14.581,45.535 15.31,45.49C16.14,45.524 16.936,45.15 17.44,44.49C17.799,43.929 17.961,43.263 17.9,42.6L17.9,37.6C17.9,36.42 17.75,36.14 17.02,36.13C16.77,36.13 16.61,36.13 16.61,35.91C16.61,35.69 16.74,35.7 16.92,35.7L19.19,35.7C19.34,35.7 19.45,35.7 19.45,35.9C19.45,36.1 19.19,36.09 18.94,36.13C18.35,36.18 18.35,36.52 18.34,37.33L18.34,42.48C18.421,43.296 18.192,44.114 17.7,44.77C17.05,45.507 16.09,45.896 15.11,45.82C14.247,45.859 13.394,45.616 12.68,45.13C12.046,44.545 11.739,43.684 11.86,42.83L11.86,37.11C11.86,36.33 11.86,36.2 11.22,36.18C10.94,36.18 10.8,36.12 10.8,35.95C10.8,35.78 10.93,35.76 11.07,35.76L14,35.76C14.2,35.76 14.32,35.76 14.32,35.96C14.32,36.16 14.12,36.14 13.87,36.17C13.22,36.17 13.05,36.26 13.05,37.28L13,42.81Z" style="fill:white;fill-rule:nonzero;stroke:white;stroke-width:0.3px;"/>
        </g>
        <g transform="matrix(1,0,0,1,-10.1815,-10.63)">
            <path d="M22.42,37.26C22.42,36.45 22.42,36.26 21.76,36.19C21.48,36.19 21.29,36.19 21.29,35.98C21.29,35.77 21.5,35.76 21.65,35.76L23.25,35.76C23.52,35.76 23.61,35.97 23.86,36.42C24.86,38 26.79,41.16 27.97,42.88C28.09,43.09 28.231,43.287 28.39,43.47C28.549,43.653 28.44,43.36 28.44,43.25L28.44,37.43C28.44,36.43 28.33,36.22 27.67,36.19C27.43,36.19 27.19,36.19 27.19,35.98L27.19,35.979C27.19,35.858 27.289,35.759 27.41,35.759C27.417,35.759 27.423,35.759 27.43,35.76L29.81,35.76C29.99,35.76 30.07,35.82 30.07,35.98C30.07,36.14 29.87,36.16 29.59,36.19C28.93,36.19 28.88,36.47 28.88,37.24L28.88,45.56C28.88,45.9 28.88,45.94 28.73,45.94C28.58,45.94 28.51,45.8 28.25,45.31L27.75,44.56C26.29,42.25 24.75,39.97 23.33,37.65C23.242,37.429 23.105,37.231 22.93,37.07C22.874,37.188 22.854,37.32 22.87,37.45L22.87,43.52C22.87,44.91 22.92,45.25 23.67,45.29C23.97,45.35 24.22,45.29 24.22,45.52C24.22,45.75 24.12,45.71 23.97,45.71L21.43,45.71C21.29,45.71 21.2,45.65 21.2,45.52C21.2,45.39 21.53,45.33 21.76,45.29C22.38,45.23 22.42,44.96 22.42,44.2L22.42,37.26Z" style="fill:white;fill-rule:nonzero;stroke:white;stroke-width:0.3px;"/>
        </g>
        <g transform="matrix(1,0,0,1,-10.1815,-10.63)">
            <path d="M34.26,44.26C34.26,45 34.26,45.26 35.02,45.26C35.25,45.26 35.53,45.31 35.53,45.51C35.53,45.71 35.44,45.68 35.22,45.68L32.22,45.68C32.05,45.68 31.93,45.68 31.93,45.5C31.93,45.32 32.18,45.3 32.42,45.26C33.14,45.2 33.17,45.08 33.17,44.26L33.17,37.09C33.17,36.34 33.1,36.22 32.47,36.19C32.11,36.19 31.92,36.19 31.92,35.96C31.92,35.73 32.02,35.76 32.23,35.76L35.23,35.76C35.42,35.76 35.55,35.82 35.55,35.97C35.55,36.12 35.32,36.15 34.96,36.19C34.32,36.19 34.26,36.41 34.26,37.09L34.26,44.26Z" style="fill:white;fill-rule:nonzero;stroke:white;stroke-width:0.3px;"/>
        </g>
        <g transform="matrix(1,0,0,1,-10.1815,-10.63)">
            <path d="M40.93,35.9C40.93,36.05 40.79,36.07 40.44,36.12C40.27,36.12 39.92,36.25 39.92,36.47C39.951,36.697 40.011,36.919 40.1,37.13L41.9,42.33C42.002,42.781 42.181,43.21 42.43,43.6C42.738,43.006 42.954,42.369 43.07,41.71L44.45,37.54C44.557,37.216 44.625,36.88 44.65,36.54C44.65,36.2 44.38,36.12 44.04,36.1C43.7,36.08 43.55,36.1 43.55,35.9C43.55,35.7 43.7,35.67 43.85,35.67L45.94,35.67C46.1,35.67 46.18,35.67 46.18,35.86C46.18,36.05 45.97,36.06 45.67,36.12C45.37,36.18 45.2,36.53 44.9,37.41C44.02,40.05 43.18,42.71 42.37,45.35C42.3,45.59 42.2,45.93 42.05,45.93C41.9,45.93 41.85,45.7 41.75,45.32C41.09,43.26 39.85,39.71 38.9,36.94C38.73,36.47 38.61,36.13 38.26,36.11C37.91,36.09 37.76,36 37.76,35.87C37.76,35.74 37.88,35.67 38.02,35.67L40.68,35.67C40.82,35.67 40.93,35.67 40.93,35.86L40.93,35.9Z" style="fill:white;fill-rule:nonzero;stroke:white;stroke-width:0.3px;"/>
        </g>
        <g transform="matrix(1,0,0,1,-10.1815,-10.63)">
            <path d="M49.09,37C49.09,36.31 49.04,36.15 48.46,36.12C48.18,36.07 47.93,36.12 47.93,35.89C47.93,35.66 48.04,35.68 48.27,35.68L54.27,35.68C54.55,35.68 54.57,35.75 54.57,36.32L54.57,37.78C54.57,38.14 54.57,38.13 54.41,38.13C54.25,38.13 54.24,38.03 54.18,37.88C54.12,37.73 54.05,37.54 53.99,37.4C53.57,36.4 53.05,36.08 51.47,36.08C51.133,36.055 50.795,36.089 50.47,36.18C50.28,36.27 50.26,36.45 50.26,36.69L50.26,39.64C50.26,40.11 50.26,40.13 51.21,40.13C52.51,40.13 52.78,40.04 52.94,39.4C53.07,38.96 53.07,38.73 53.25,38.73C53.43,38.73 53.4,38.73 53.4,38.98C53.4,39.41 53.33,39.86 53.33,40.29C53.33,40.72 53.4,41.29 53.4,41.8C53.4,42.02 53.32,42.06 53.24,42.06C53.16,42.06 53.05,41.78 52.96,41.44C52.77,40.71 52.44,40.54 51.14,40.54C50.33,40.54 50.26,40.59 50.26,40.95L50.26,44.1C50.26,45.18 50.81,45.38 51.93,45.38C53.39,45.38 53.98,45.03 54.44,43.65C54.57,43.25 54.62,43.11 54.76,43.11C54.9,43.11 54.89,43.11 54.9,43.27C54.91,43.43 54.9,43.69 54.9,44.27C54.9,44.85 54.83,45.06 54.8,45.39C54.77,45.72 54.66,45.77 54.45,45.77L48.27,45.77C48.02,45.77 47.88,45.77 47.88,45.55C47.88,45.33 48.06,45.36 48.29,45.33C49.03,45.33 49.09,45.1 49.09,44.26L49.09,37Z" style="fill:white;fill-rule:nonzero;stroke:white;stroke-width:0.3px;"/>
        </g>
        <g transform="matrix(1,0,0,1,-10.1815,-10.63)">
            <path d="M59.12,40.27C59.12,40.48 59.23,40.54 59.67,40.54C60.81,40.54 62.42,40.11 62.42,38.29C62.43,38.207 62.436,38.123 62.436,38.039C62.436,36.942 61.533,36.039 60.436,36.039C60.367,36.039 60.298,36.043 60.23,36.05C59.23,36.05 59.12,36.23 59.12,37.05L59.12,40.27ZM59.12,44.33C59.12,45.06 59.17,45.33 59.89,45.33C60.23,45.33 60.45,45.4 60.45,45.57C60.45,45.74 60.35,45.76 60.17,45.76L57,45.76C56.78,45.76 56.67,45.76 56.67,45.58C56.67,45.4 56.86,45.4 57.28,45.34C57.92,45.34 57.97,45.1 57.97,44.34L57.97,37.24C57.97,36.41 57.97,36.24 57.28,36.16C57.01,36.16 56.71,36.16 56.71,35.94C56.71,35.72 56.82,35.72 57.02,35.72L60.64,35.72C62.38,35.72 63.64,36.66 63.64,38.19C63.639,39.163 63.037,40.04 62.13,40.39C61.841,40.505 61.544,40.595 61.24,40.66C61.54,40.816 61.775,41.075 61.9,41.39C62.5,42.6 62.9,43.64 63.34,44.39C63.59,44.89 63.81,45.33 64.25,45.39C64.47,45.39 64.84,45.39 64.84,45.64C64.84,45.89 64.73,45.81 64.58,45.81L63,45.81C62.78,45.81 62.7,45.61 62.49,45.15C62.12,44.36 61.68,43.34 61.05,41.93C60.63,41.05 60.51,40.93 59.62,40.93C59.21,40.93 59.15,41.03 59.15,41.41L59.12,44.33Z" style="fill:white;fill-rule:nonzero;stroke:white;stroke-width:0.3px;"/>
        </g>
        <g transform="matrix(1,0,0,1,-10.1815,-10.63)">
            <path d="M72,42.87L72,42.896C72,44.542 70.646,45.896 69,45.896C68.896,45.896 68.793,45.891 68.69,45.88C67.965,45.895 67.249,45.723 66.61,45.38C66.41,45.26 66.36,45.06 66.35,44.38C66.325,43.907 66.325,43.433 66.35,42.96C66.35,42.77 66.42,42.72 66.55,42.72C66.68,42.72 66.75,43.03 66.81,43.32C67.2,44.87 68,45.53 69,45.53L69.002,45.53C70.099,45.53 71.002,44.627 71.002,43.53C71.002,43.503 71.001,43.477 71,43.45C70.955,42.374 70.262,41.427 69.25,41.06L68.51,40.66C67.51,40.11 66.51,39.41 66.51,38.03C66.601,36.634 67.775,35.534 69.174,35.534C69.233,35.534 69.292,35.536 69.35,35.54C70.009,35.545 70.66,35.688 71.26,35.96C71.43,36.04 71.42,36.16 71.44,36.49C71.46,36.82 71.44,37.15 71.44,37.6C71.44,38.05 71.44,38.16 71.28,38.16C71.12,38.16 71.09,37.91 71.02,37.67C70.67,36.4 70.08,35.89 69.19,35.89C69.16,35.888 69.13,35.888 69.1,35.888C68.214,35.888 67.48,36.605 67.46,37.49C67.46,38.89 68.83,39.49 69.89,40.01C70.95,40.53 72,41.33 72,42.87Z" style="fill:white;fill-rule:nonzero;stroke:white;stroke-width:0.3px;"/>
        </g>
        <g transform="matrix(1,0,0,1,-10.1815,-10.63)">
            <path d="M76,44.26C76,45 76,45.26 76.76,45.26C76.99,45.26 77.27,45.31 77.27,45.51C77.27,45.71 77.17,45.68 76.95,45.68L74,45.68C73.84,45.68 73.72,45.68 73.72,45.5C73.72,45.32 73.97,45.3 74.21,45.26C74.93,45.2 74.95,45.08 74.95,44.26L74.95,37.09C74.95,36.34 74.88,36.22 74.25,36.19C73.9,36.19 73.71,36.19 73.71,35.96C73.71,35.73 73.8,35.76 74.01,35.76L77,35.76C77.19,35.76 77.31,35.82 77.31,35.97C77.31,36.12 77.09,36.15 76.73,36.19C76.09,36.19 76.03,36.41 76.03,37.09L76,44.26Z" style="fill:white;fill-rule:nonzero;stroke:white;stroke-width:0.3px;"/>
        </g>
        <g transform="matrix(1,0,0,1,-10.1815,-10.63)">
            <path d="M82.37,36.52C82.37,36.22 82.29,36.19 81.78,36.19C80.843,36.085 79.948,36.636 79.62,37.52C79.47,37.85 79.37,38.23 79.2,38.23C79.03,38.23 79,38.18 79,38C79,37.82 79,37.77 79.06,37.63C79.17,37.08 79.31,36.36 79.47,35.76C79.53,35.51 79.58,35.32 79.71,35.32C79.84,35.32 79.88,35.42 79.91,35.52C79.94,35.62 80,35.84 80.37,35.84L85.61,35.84C86.12,35.84 86.29,35.78 86.38,35.56C86.47,35.34 86.47,35.32 86.62,35.32C86.77,35.32 86.8,35.44 86.8,35.7L86.8,36.15C86.8,36.65 86.74,37.3 86.7,37.8C86.7,38.11 86.61,38.25 86.47,38.25C86.33,38.25 86.29,37.96 86.22,37.66C85.97,36.8 85.78,36.24 84.7,36.24L84,36.24C83.56,36.24 83.54,36.3 83.54,36.71L83.54,44.32C83.54,45.12 83.63,45.32 84.24,45.32C84.54,45.37 84.83,45.37 84.83,45.55C84.83,45.73 84.69,45.74 84.53,45.74L81.4,45.74C81.2,45.74 81.11,45.74 81.11,45.55C81.11,45.36 81.22,45.35 81.65,45.32C82.33,45.32 82.37,45.12 82.37,44.32L82.37,36.52Z" style="fill:white;fill-rule:nonzero;stroke:white;stroke-width:0.3px;"/>
        </g>
        <g transform="matrix(1,0,0,1,-10.1815,-10.63)">
            <path d="M98.56,36.52C98.56,36.22 98.49,36.19 97.97,36.19C97.033,36.085 96.138,36.636 95.81,37.52C95.67,37.85 95.56,38.23 95.39,38.23C95.22,38.23 95.23,38.23 95.23,37.95C95.24,37.825 95.26,37.702 95.29,37.58C95.39,37.03 95.54,36.31 95.69,35.71C95.75,35.46 95.81,35.27 95.93,35.27C96.05,35.27 96.1,35.37 96.13,35.47C96.16,35.57 96.22,35.79 96.59,35.79L101.83,35.79C102.34,35.79 102.51,35.73 102.6,35.51C102.69,35.29 102.69,35.27 102.84,35.27C102.99,35.27 103.02,35.39 103.02,35.65L103.02,36.1C103.02,36.6 102.96,37.25 102.92,37.75C102.92,38.06 102.84,38.2 102.7,38.2C102.56,38.2 102.51,37.91 102.44,37.61C102.2,36.75 102.01,36.19 100.92,36.19L100.17,36.19C99.73,36.19 99.71,36.25 99.71,36.66L99.71,44.27C99.71,45.07 99.8,45.27 100.42,45.27C100.71,45.32 101,45.32 101,45.5C101,45.68 100.86,45.69 100.7,45.69L97.59,45.69C97.39,45.69 97.3,45.69 97.3,45.5C97.3,45.31 97.42,45.3 97.84,45.27C98.52,45.27 98.56,45.07 98.56,44.27L98.56,36.52Z" style="fill:white;fill-rule:nonzero;stroke:white;stroke-width:0.3px;"/>
        </g>
        <g transform="matrix(1,0,0,1,-10.1815,-10.63)">
            <path d="M91.49,41.69C91.8,41.69 91.87,41.69 91.87,41.57C91.87,41.45 91.81,41.33 91.79,41.22C91.55,40.56 91.23,39.64 90.86,38.39C90.8,38.19 90.71,38 90.63,38C90.55,38 90.46,38.19 90.37,38.5C90.03,39.64 89.77,40.5 89.55,41.16C89.506,41.301 89.473,41.444 89.45,41.59C89.45,41.67 89.53,41.69 89.77,41.69L91.49,41.69ZM89.59,42.11C89.3,42.11 89.25,42.11 89.03,42.85C88.802,43.503 88.621,44.171 88.49,44.85C88.49,45.21 88.89,45.31 89.25,45.34C89.61,45.37 89.68,45.34 89.68,45.55C89.68,45.76 89.53,45.73 89.36,45.73L87,45.73C86.88,45.73 86.78,45.73 86.78,45.55C86.78,45.37 86.96,45.37 87.09,45.35C87.48,45.35 87.68,45.26 87.95,44.5C88.85,41.87 89.67,39.19 90.48,36.5C90.54,36.3 90.6,36.12 90.66,35.94C90.72,35.76 90.75,35.52 90.93,35.52C91.11,35.52 91.13,35.68 91.18,35.87C92.11,38.67 93.04,41.49 93.96,44.29C94.12,44.72 94.32,45.29 94.76,45.29C94.94,45.29 95.22,45.34 95.22,45.54C95.22,45.74 95.1,45.67 94.94,45.67L92.1,45.67C91.98,45.67 91.84,45.67 91.84,45.51C91.84,45.35 92.06,45.29 92.27,45.29C92.48,45.29 92.95,45.29 92.95,44.86C92.95,44.43 92.62,43.86 92.35,42.86C92.1,42.13 92.12,42.06 91.62,42.06L89.59,42.11Z" style="fill:white;fill-rule:nonzero;stroke:white;stroke-width:0.3px;"/>
        </g>
        <g transform="matrix(1,0,0,1,-10.1815,-10.63)">
            <path d="M89.56,34.28C89.198,34.265 88.909,33.963 88.909,33.601C88.909,33.587 88.909,33.574 88.91,33.56C88.907,33.537 88.906,33.513 88.906,33.49C88.906,33.138 89.195,32.85 89.546,32.85L89.57,32.85C89.931,32.893 90.205,33.202 90.205,33.565C90.205,33.928 89.931,34.237 89.57,34.28L89.56,34.28Z" style="fill:white;fill-rule:nonzero;stroke:white;stroke-width:0.3px;"/>
        </g>
        <g transform="matrix(1,0,0,1,-10.1815,-10.63)">
            <path d="M92.2,34.28C91.842,34.26 91.559,33.96 91.559,33.601C91.559,33.587 91.559,33.574 91.56,33.56C91.557,33.537 91.556,33.513 91.556,33.49C91.556,33.138 91.845,32.85 92.196,32.85L92.22,32.85C92.581,32.893 92.855,33.202 92.855,33.565C92.855,33.928 92.581,34.237 92.22,34.28L92.2,34.28Z" style="fill:white;fill-rule:nonzero;stroke:white;stroke-width:0.3px;"/>
        </g>
        <g transform="matrix(1,0,0,1,-10.1815,-10.63)">
            <path d="M150.94,40.67C150.94,37.21 149.26,35.93 147.94,35.93C146.44,35.93 144.88,37.31 144.88,40.69C144.88,44.07 146.43,45.45 147.94,45.45C149.24,45.45 150.94,44.21 150.94,40.69L150.94,40.67ZM143.53,40.67C143.53,37.76 145.64,35.52 147.91,35.52C150.18,35.52 152.28,37.68 152.28,40.69C152.28,43.7 150.28,45.86 147.91,45.86C145.54,45.86 143.53,43.61 143.53,40.69L143.53,40.67Z" style="fill:white;fill-rule:nonzero;stroke:white;stroke-width:0.3px;"/>
        </g>
        <g transform="matrix(1,0,0,1,-10.1815,-10.63)">
            <path d="M160.38,42.87L160.38,42.896C160.38,44.542 159.026,45.896 157.38,45.896C157.276,45.896 157.173,45.891 157.07,45.88C156.345,45.895 155.629,45.723 154.99,45.38C154.79,45.26 154.74,45.06 154.73,44.38C154.721,43.906 154.738,43.432 154.78,42.96C154.78,42.77 154.85,42.72 154.97,42.72C155.09,42.72 155.18,43.03 155.24,43.32C155.55,44.87 156.32,45.53 157.36,45.53L157.362,45.53C158.459,45.53 159.362,44.627 159.362,43.53C159.362,43.503 159.361,43.477 159.36,43.45C159.316,42.371 158.618,41.422 157.6,41.06L156.87,40.66C155.87,40.11 154.87,39.41 154.87,38.03C154.961,36.634 156.135,35.534 157.534,35.534C157.593,35.534 157.652,35.536 157.71,35.54C158.369,35.545 159.02,35.688 159.62,35.96C159.78,36.04 159.78,36.16 159.79,36.49C159.8,36.82 159.79,37.15 159.79,37.6C159.79,38.05 159.79,38.16 159.63,38.16C159.47,38.16 159.43,37.91 159.37,37.67C159.02,36.4 158.37,35.89 157.53,35.89C157.503,35.889 157.476,35.888 157.45,35.888C156.564,35.888 155.831,36.605 155.81,37.49C155.81,38.89 157.18,39.49 158.23,40.01C159.28,40.53 160.38,41.33 160.38,42.87Z" style="fill:white;fill-rule:nonzero;stroke:white;stroke-width:0.3px;"/>
        </g>
        <g transform="matrix(1,0,0,1,-10.1815,-10.63)">
            <path d="M163.6,37.26C163.6,36.45 163.6,36.26 162.94,36.19C162.66,36.19 162.47,36.19 162.47,35.98C162.47,35.77 162.68,35.76 162.83,35.76L164.43,35.76C164.69,35.76 164.79,35.97 165.04,36.42C166.04,38 167.97,41.16 169.15,42.88C169.27,43.09 169.411,43.287 169.57,43.47C169.729,43.653 169.62,43.36 169.62,43.25L169.62,37.43C169.62,36.43 169.51,36.22 168.85,36.19C168.61,36.19 168.37,36.19 168.37,35.98L168.37,35.979C168.37,35.858 168.469,35.759 168.59,35.759C168.597,35.759 168.603,35.759 168.61,35.76L171,35.76C171.18,35.76 171.26,35.82 171.26,35.98C171.26,36.14 171.06,36.16 170.78,36.19C170.12,36.19 170.07,36.47 170.07,37.24L170.07,45.56C170.07,45.9 170.07,45.94 169.92,45.94C169.77,45.94 169.7,45.8 169.44,45.31C169.28,45.07 169.1,44.81 168.94,44.56C167.47,42.25 165.94,39.97 164.52,37.65C164.432,37.429 164.295,37.231 164.12,37.07C164.064,37.188 164.044,37.32 164.06,37.45L164.06,43.52C164.06,44.91 164.06,45.25 164.86,45.29C165.16,45.35 165.41,45.29 165.41,45.52C165.41,45.75 165.31,45.71 165.16,45.71L162.6,45.71C162.46,45.71 162.38,45.65 162.38,45.52C162.38,45.39 162.71,45.33 162.94,45.29C163.56,45.23 163.6,44.96 163.6,44.2L163.6,37.26Z" style="fill:white;fill-rule:nonzero;stroke:white;stroke-width:0.3px;"/>
        </g>
        <g transform="matrix(1,0,0,1,-10.1815,-10.63)">
            <path d="M176.81,41.69C177.13,41.69 177.19,41.69 177.19,41.57C177.19,41.45 177.13,41.33 177.11,41.22C176.88,40.56 176.55,39.64 176.18,38.39C176.13,38.19 176.04,38 175.95,38C175.86,38 175.79,38.19 175.7,38.5C175.35,39.64 175.09,40.5 174.87,41.16C174.826,41.301 174.793,41.444 174.77,41.59C174.77,41.67 174.85,41.69 175.09,41.69L176.81,41.69ZM174.91,42.11C174.62,42.11 174.57,42.11 174.35,42.85C174.122,43.503 173.941,44.171 173.81,44.85C173.81,45.21 174.21,45.31 174.57,45.34C174.93,45.37 175,45.34 175,45.55C175,45.76 174.85,45.73 174.68,45.73L172.35,45.73C172.23,45.73 172.13,45.73 172.13,45.55C172.13,45.37 172.31,45.37 172.44,45.35C172.83,45.35 173.04,45.26 173.3,44.5C174.2,41.87 175.02,39.19 175.83,36.5C175.89,36.3 175.95,36.12 176.01,35.94C176.07,35.76 176.1,35.52 176.28,35.52C176.46,35.52 176.48,35.68 176.53,35.87L179.32,44.29C179.47,44.72 179.67,45.29 180.11,45.29C180.29,45.29 180.58,45.34 180.58,45.54C180.58,45.74 180.45,45.67 180.29,45.67L177.43,45.67C177.3,45.67 177.16,45.67 177.16,45.51C177.16,45.35 177.39,45.29 177.6,45.29C177.81,45.29 178.27,45.29 178.27,44.86C178.27,44.43 177.94,43.86 177.67,42.86C177.43,42.13 177.44,42.06 176.95,42.06L174.91,42.11Z" style="fill:white;fill-rule:nonzero;stroke:white;stroke-width:0.3px;"/>
        </g>
        <g transform="matrix(1,0,0,1,-10.1815,-10.63)">
            <path d="M184.71,44C184.71,45 184.94,45.38 186.22,45.38C186.921,45.437 187.608,45.15 188.06,44.61C188.452,44.094 188.653,43.458 188.63,42.81C188.664,42.114 188.372,41.44 187.84,40.99C187.172,40.484 186.333,40.254 185.5,40.35C184.8,40.35 184.73,40.4 184.71,40.75L184.71,44ZM184.71,39.55C184.71,39.97 184.8,39.99 185.3,39.99C185.84,40.017 186.38,39.956 186.9,39.81C187.658,39.528 188.133,38.764 188.05,37.96C188.051,37.934 188.052,37.907 188.052,37.88C188.052,36.822 187.18,35.95 186.122,35.95C186.058,35.95 185.994,35.954 185.93,35.96C184.83,35.96 184.71,36.18 184.71,36.81L184.71,39.55ZM183.58,37.22C183.58,36.55 183.5,36.22 182.89,36.22L182.42,36.22C182.417,36.22 182.413,36.221 182.409,36.221C182.349,36.221 182.299,36.171 182.299,36.111C182.299,36.107 182.3,36.103 182.3,36.1C182.3,35.93 182.64,35.83 182.93,35.77C183.789,35.597 184.664,35.513 185.54,35.52C186.453,35.475 187.363,35.643 188.2,36.01C188.893,36.366 189.333,37.081 189.34,37.86C189.258,38.958 188.427,39.863 187.34,40.04C187.585,40.072 187.826,40.129 188.06,40.21C189.179,40.563 189.939,41.617 189.92,42.79C189.922,43.625 189.556,44.419 188.92,44.96C188.252,45.462 187.424,45.707 186.59,45.65L182.76,45.65C182.58,45.65 182.46,45.59 182.46,45.44C182.46,45.29 182.66,45.27 182.9,45.23C183.54,45.23 183.57,45.01 183.57,44.3L183.58,37.22Z" style="fill:white;fill-rule:nonzero;stroke:white;stroke-width:0.3px;"/>
        </g>
        <g transform="matrix(1,0,0,1,-10.1815,-10.63)">
            <path d="M194.35,40.27C194.35,40.48 194.45,40.54 194.89,40.54C196.01,40.54 197.6,40.12 197.6,38.32C197.607,38.251 197.611,38.182 197.611,38.114C197.611,37.016 196.708,36.114 195.611,36.114C195.557,36.114 195.503,36.116 195.45,36.12C194.45,36.12 194.35,36.29 194.35,37.06L194.35,40.27ZM194.35,44.27C194.35,44.99 194.4,45.27 195.1,45.27C195.44,45.32 195.66,45.33 195.66,45.51C195.66,45.69 195.56,45.69 195.38,45.69L192.25,45.69C192.04,45.69 191.93,45.69 191.93,45.52C191.93,45.35 192.11,45.34 192.53,45.27C193.16,45.27 193.21,45.04 193.21,44.27L193.21,37.27C193.21,36.45 193.21,36.27 192.53,36.2C192.27,36.2 191.97,36.2 191.97,35.99C191.97,35.78 192.08,35.77 192.28,35.77L195.85,35.77C197.56,35.77 198.85,36.7 198.85,38.2C198.854,39.161 198.258,40.029 197.36,40.37C197.078,40.484 196.787,40.574 196.49,40.64C196.782,40.797 197.009,41.052 197.13,41.36C197.73,42.55 198.13,43.58 198.55,44.36C198.8,44.85 199.02,45.29 199.45,45.31C199.67,45.31 200.04,45.31 200.04,45.56C200.04,45.81 199.92,45.73 199.78,45.73L198.14,45.73C197.92,45.73 197.85,45.53 197.64,45.08C197.28,44.3 196.84,43.3 196.22,41.9C195.8,41.04 195.68,40.9 194.81,40.9C194.41,40.9 194.35,41 194.35,41.37L194.35,44.27Z" style="fill:white;fill-rule:nonzero;stroke:white;stroke-width:0.3px;"/>
        </g>
        <g transform="matrix(1,0,0,1,-10.1815,-10.63)">
            <path d="M218.75,44.7C218.75,45.09 218.75,45.14 218.41,45.31C217.679,45.693 216.865,45.888 216.04,45.88C213.55,45.88 211.62,43.75 211.62,40.7C211.62,37.65 213.62,35.54 216.17,35.54C216.919,35.554 217.659,35.71 218.35,36C218.56,36.1 218.58,36.19 218.61,36.61C218.64,37.03 218.67,37.33 218.67,37.76C218.67,38.19 218.67,38.27 218.51,38.27C218.35,38.27 218.27,38.02 217.97,37.4C217.678,36.565 216.885,36.001 216,36C214.25,36 212.95,37.68 212.95,40.64C212.95,43.83 214.4,45.53 216.08,45.53C217.059,45.493 217.891,44.782 218.08,43.82C218.33,43.11 218.4,42.74 218.57,42.74C218.74,42.74 218.79,42.79 218.78,43.08L218.75,44.7Z" style="fill:white;fill-rule:nonzero;stroke:white;stroke-width:0.3px;"/>
        </g>
        <g transform="matrix(1,0,0,1,-10.1815,-10.63)">
            <path d="M222.25,37.19C222.25,36.37 222.25,36.19 221.63,36.19C221.36,36.19 221.13,36.19 221.13,35.96C221.13,35.73 221.23,35.76 221.39,35.76L224.26,35.76C224.43,35.76 224.52,35.82 224.52,35.96C224.52,36.1 224.33,36.13 224.04,36.19C223.45,36.19 223.39,36.39 223.39,37.05L223.39,40C223.39,40.37 223.39,40.45 223.45,40.45C223.51,40.45 223.66,40.26 223.81,40.08C224.38,39.47 225.41,38.32 226.14,37.43C226.35,37.16 226.7,36.76 226.7,36.57C226.7,36.38 226.48,36.25 226.18,36.22C225.88,36.19 225.8,36.17 225.8,36.01C225.8,35.85 225.92,35.81 226.09,35.81L228.77,35.81C228.97,35.81 229.06,35.87 229.06,36C229.06,36.13 228.85,36.18 228.59,36.21C228.13,36.21 227.65,36.42 226.83,37.3C226.29,37.88 225.75,38.47 225.24,39.1C225.07,39.32 224.93,39.45 224.93,39.56C224.988,39.726 225.073,39.881 225.18,40.02C225.74,40.8 226.45,41.9 227.52,43.73C228.42,45.18 228.61,45.29 228.96,45.34C229.31,45.39 229.41,45.34 229.41,45.56C229.41,45.78 229.28,45.76 229.08,45.76L226.18,45.76C225.96,45.76 225.84,45.76 225.84,45.57C225.84,45.38 226.06,45.38 226.32,45.36C226.58,45.34 226.91,45.31 226.91,44.99C226.91,44.67 226.72,44.53 226.42,43.99L224.52,40.99C224.41,40.79 224.21,40.47 224.11,40.47C224.01,40.47 223.39,41.05 223.39,41.33L223.39,44.2C223.39,45.09 223.54,45.27 223.96,45.3C224.38,45.33 224.52,45.3 224.52,45.52C224.52,45.74 224.42,45.71 224.17,45.71L221.41,45.71C221.23,45.71 221.13,45.71 221.13,45.51C221.13,45.31 221.25,45.32 221.47,45.29C222.21,45.29 222.25,45.13 222.25,44.23L222.25,37.19Z" style="fill:white;fill-rule:nonzero;stroke:white;stroke-width:0.3px;"/>
        </g>
        <g transform="matrix(1,0,0,1,-10.1815,-10.63)">
            <path d="M203.51,42.81C203.444,43.462 203.58,44.118 203.9,44.69C204.384,45.241 205.098,45.537 205.83,45.49C206.657,45.524 207.45,45.15 207.95,44.49C208.309,43.929 208.471,43.263 208.41,42.6L208.41,37.6C208.41,36.42 208.26,36.14 207.53,36.13C207.28,36.13 207.12,36.13 207.12,35.91C207.12,35.69 207.25,35.7 207.43,35.7L209.7,35.7C209.85,35.7 209.96,35.7 209.96,35.9C209.96,36.1 209.71,36.09 209.45,36.13C208.87,36.18 208.86,36.52 208.85,37.33L208.85,42.48C208.931,43.296 208.702,44.114 208.21,44.77C207.562,45.509 206.6,45.899 205.62,45.82C204.757,45.859 203.904,45.616 203.19,45.13C202.56,44.543 202.257,43.682 202.38,42.83L202.38,37.11C202.38,36.33 202.38,36.2 201.74,36.18C201.45,36.18 201.31,36.12 201.31,35.95C201.31,35.78 201.44,35.76 201.58,35.76L204.46,35.76C204.66,35.76 204.79,35.76 204.79,35.96C204.79,36.16 204.58,36.14 204.33,36.17C203.68,36.17 203.51,36.26 203.51,37.28L203.51,42.81Z" style="fill:white;fill-rule:nonzero;stroke:white;stroke-width:0.3px;"/>
        </g>
        <g transform="matrix(1,0,0,1,-10.1815,-10.63)">
            <path d="M204.45,34.28C204.092,34.26 203.808,33.96 203.808,33.601C203.808,33.584 203.809,33.567 203.81,33.55C203.807,33.526 203.806,33.503 203.806,33.479C203.806,33.133 204.09,32.849 204.436,32.849C204.447,32.849 204.459,32.849 204.47,32.85C204.831,32.893 205.105,33.202 205.105,33.565C205.105,33.928 204.831,34.237 204.47,34.28L204.45,34.28Z" style="fill:white;fill-rule:nonzero;stroke:white;stroke-width:0.3px;"/>
        </g>
        <g transform="matrix(1,0,0,1,-10.1815,-10.63)">
            <path d="M207.1,34.28C206.737,34.26 206.449,33.955 206.449,33.591C206.449,33.577 206.449,33.564 206.45,33.55C206.448,33.53 206.447,33.51 206.447,33.49C206.447,33.138 206.736,32.85 207.087,32.85L207.11,32.85C207.471,32.893 207.745,33.202 207.745,33.565C207.745,33.928 207.471,34.237 207.11,34.28L207.1,34.28Z" style="fill:white;fill-rule:nonzero;stroke:white;stroke-width:0.3px;"/>
        </g>
        <g transform="matrix(1,0,0,1,-10.1815,-10.63)">
            <path d="M139.93,31.37L129.45,25.89L129.45,15.32L139.93,15.32L139.93,31.37ZM129,14.3L123.93,11.65L133.58,11.65L138.5,14.3L129,14.3ZM128.47,25.36L126.64,24.36L126.64,19.36C126.544,17.632 125.096,16.261 123.365,16.261C121.634,16.261 120.186,17.632 120.09,19.36L120.09,24.31L118.26,25.26L118.26,15.17L123.36,12.51L128.46,15.18L128.47,25.36ZM117.69,14.3L108.13,14.3L113,11.65L122.74,11.65L117.69,14.3ZM117.21,25.86L106.73,31.37L106.73,15.37L117.21,15.37L117.21,25.86ZM133.79,10.63L112.79,10.63L105.72,14.44L105.72,33.06L118.24,26.48L121.08,25L121.08,19.42C121.159,18.239 122.152,17.31 123.335,17.31C124.518,17.31 125.511,18.239 125.59,19.42L125.59,25L129.46,27L140.96,33L140.96,14.48L133.79,10.63ZM123.36,14L123.38,14C123.667,14 123.905,14.233 123.91,14.52C123.905,14.812 123.662,15.05 123.37,15.05C123.078,15.05 122.835,14.812 122.83,14.52C122.835,14.233 123.073,14 123.36,14ZM121.91,14.49L121.91,14.54C121.91,15.341 122.569,16 123.37,16C124.171,16 124.83,15.341 124.83,14.54C124.83,13.739 124.171,13.08 123.37,13.08C122.588,13.08 121.937,13.708 121.91,14.49ZM129.45,28.89L139.93,34.37L139.93,47.56L123.33,56.25L106.73,47.56L106.73,34.34L117.21,28.86L117.21,42L123.33,45.25L123.57,45.12L129.45,42L129.45,28.89ZM128.45,41.39L123.35,44.09L118.25,41.39L118.25,27.17L117.5,27.56L105.73,33.72L105.73,48.18L123.35,57.4L141,48.18L141,33.72L128.48,27.17L128.45,41.39Z" style="fill:rgb(251,186,0);fill-rule:nonzero;"/>
        </g>
    </g>
</svg>
